<?xml version="1.0" encoding="utf-8" standalone="no"?>
<!DOCTYPE svg PUBLIC "-//W3C//DTD SVG 1.1//EN"
  "http://www.w3.org/Graphics/SVG/1.1/DTD/svg11.dtd">
<svg xmlns:xlink="http://www.w3.org/1999/xlink" width="460.8pt" height="345.6pt" viewBox="0 0 460.8 345.6" xmlns="http://www.w3.org/2000/svg" version="1.1">
 <metadata>
  <rdf:RDF xmlns:dc="http://purl.org/dc/elements/1.1/" xmlns:cc="http://creativecommons.org/ns#" xmlns:rdf="http://www.w3.org/1999/02/22-rdf-syntax-ns#">
   <cc:Work>
    <dc:type rdf:resource="http://purl.org/dc/dcmitype/StillImage"/>
    <dc:date>2026-05-17T16:21:03.093113</dc:date>
    <dc:format>image/svg+xml</dc:format>
    <dc:creator>
     <cc:Agent>
      <dc:title>Matplotlib v3.10.8, https://matplotlib.org/</dc:title>
     </cc:Agent>
    </dc:creator>
   </cc:Work>
  </rdf:RDF>
 </metadata>
 <defs>
  <style type="text/css">*{stroke-linejoin: round; stroke-linecap: butt}</style>
 </defs>
 <g id="figure_1">
  <g id="patch_1">
   <path d="M 0 345.6 
L 460.8 345.6 
L 460.8 0 
L 0 0 
z
" style="fill: #ffffff"/>
  </g>
  <g id="axes_1">
   <g id="patch_2">
    <path d="M 57.6 307.584 
L 414.72 307.584 
L 414.72 41.472 
L 57.6 41.472 
z
" style="fill: #ffffff"/>
   </g>
   <g id="FillBetweenPolyCollection_1">
    <defs>
     <path id="m2c6b9f98c6" d="M 73.832727 -160.877396 
L 73.832727 -105.969781 
L 80.45833 -50.112 
L 87.083933 -131.142477 
L 93.709536 -198.078885 
L 100.335139 -106.977199 
L 106.960742 -175.180938 
L 113.586345 -148.961699 
L 120.211948 -96.722337 
L 126.837551 -124.634882 
L 133.463154 -111.166203 
L 140.088757 -140.809036 
L 146.71436 -151.772729 
L 153.339963 -133.814485 
L 159.965566 -154.278167 
L 166.591169 -127.441633 
L 173.216772 -134.916231 
L 179.842375 -141.68024 
L 186.467978 -155.490401 
L 193.093581 -161.078601 
L 199.719184 -120.938446 
L 206.344787 -108.258001 
L 212.97039 -170.368052 
L 219.595993 -120.397946 
L 226.221596 -98.140528 
L 232.847199 -168.307901 
L 239.472801 -92.114509 
L 246.098404 -162.776707 
L 252.724007 -70.300118 
L 259.34961 -148.662243 
L 265.975213 -93.365986 
L 272.600816 -168.069134 
L 279.226419 -153.130556 
L 285.852022 -135.165335 
L 292.477625 -119.424607 
L 299.103228 -126.118259 
L 305.728831 -145.711256 
L 312.354434 -189.104206 
L 318.980037 -156.366474 
L 325.60564 -151.892281 
L 332.231243 -133.42099 
L 338.856846 -93.791333 
L 345.482449 -94.846349 
L 352.108052 -186.534394 
L 358.733655 -142.567218 
L 365.359258 -200.916026 
L 371.984861 -143.833508 
L 378.610464 -111.131995 
L 385.236067 -145.235641 
L 391.86167 -102.028769 
L 398.487273 -150.117047 
L 398.487273 -199.788323 
L 398.487273 -199.788323 
L 391.86167 -168.537432 
L 385.236067 -207.149078 
L 378.610464 -179.268999 
L 371.984861 -223.427305 
L 365.359258 -240.725258 
L 358.733655 -207.338152 
L 352.108052 -257.586239 
L 345.482449 -181.918225 
L 338.856846 -153.221052 
L 332.231243 -199.128937 
L 325.60564 -229.004952 
L 318.980037 -228.249782 
L 312.354434 -241.380006 
L 305.728831 -217.830533 
L 299.103228 -190.315899 
L 292.477625 -159.819316 
L 285.852022 -202.34329 
L 279.226419 -206.69221 
L 272.600816 -217.786797 
L 265.975213 -161.084447 
L 259.34961 -216.11922 
L 252.724007 -155.6378 
L 246.098404 -223.079223 
L 239.472801 -168.534296 
L 232.847199 -226.225751 
L 226.221596 -156.309905 
L 219.595993 -191.077514 
L 212.97039 -230.363973 
L 206.344787 -187.10169 
L 199.719184 -173.181571 
L 193.093581 -216.099608 
L 186.467978 -200.613342 
L 179.842375 -206.985455 
L 173.216772 -214.989139 
L 166.591169 -184.033827 
L 159.965566 -183.230458 
L 153.339963 -195.016418 
L 146.71436 -200.611989 
L 140.088757 -183.063169 
L 133.463154 -195.350559 
L 126.837551 -195.5183 
L 120.211948 -155.248746 
L 113.586345 -220.778463 
L 106.960742 -254.0636 
L 100.335139 -136.316163 
L 93.709536 -248.521097 
L 87.083933 -207.605822 
L 80.45833 -107.643821 
L 73.832727 -160.877396 
z
" style="stroke: #1f77b4; stroke-opacity: 0.2"/>
    </defs>
    <g clip-path="url(#pb2988460cd)">
     <use xlink:href="#m2c6b9f98c6" x="0" y="345.6" style="fill: #1f77b4; fill-opacity: 0.2; stroke: #1f77b4; stroke-opacity: 0.2"/>
    </g>
   </g>
   <g id="FillBetweenPolyCollection_2">
    <defs>
     <path id="m6cdf99ab6c" d="M 73.832727 -201.619188 
L 73.832727 -138.368786 
L 80.45833 -171.901115 
L 87.083933 -187.431685 
L 93.709536 -142.710608 
L 100.335139 -198.563961 
L 106.960742 -166.781274 
L 113.586345 -126.374872 
L 120.211948 -144.20478 
L 126.837551 -144.680983 
L 133.463154 -160.647998 
L 140.088757 -192.1793 
L 146.71436 -161.353787 
L 153.339963 -121.790414 
L 159.965566 -121.33765 
L 166.591169 -148.390959 
L 173.216772 -160.032113 
L 179.842375 -169.444507 
L 186.467978 -177.08661 
L 193.093581 -178.082882 
L 199.719184 -182.351288 
L 206.344787 -137.382316 
L 212.97039 -137.467924 
L 219.595993 -124.222459 
L 226.221596 -105.440933 
L 232.847199 -77.338731 
L 239.472801 -83.95637 
L 246.098404 -202.191857 
L 252.724007 -134.152688 
L 259.34961 -172.566596 
L 265.975213 -152.270306 
L 272.600816 -180.31731 
L 279.226419 -128.184795 
L 285.852022 -133.371291 
L 292.477625 -136.184828 
L 299.103228 -158.698867 
L 305.728831 -103.747999 
L 312.354434 -192.746317 
L 318.980037 -133.532724 
L 325.60564 -136.117794 
L 332.231243 -151.408341 
L 338.856846 -141.656827 
L 345.482449 -206.634311 
L 352.108052 -170.815159 
L 358.733655 -157.501363 
L 365.359258 -71.012194 
L 371.984861 -128.698021 
L 378.610464 -109.180454 
L 385.236067 -139.532319 
L 391.86167 -136.230789 
L 398.487273 -135.902938 
L 398.487273 -212.762757 
L 398.487273 -212.762757 
L 391.86167 -196.319137 
L 385.236067 -221.530122 
L 378.610464 -171.303143 
L 371.984861 -191.455161 
L 365.359258 -130.132235 
L 358.733655 -222.156195 
L 352.108052 -227.437517 
L 345.482449 -292.032 
L 338.856846 -218.165939 
L 332.231243 -200.976378 
L 325.60564 -213.787576 
L 318.980037 -186.620457 
L 312.354434 -266.250409 
L 305.728831 -181.694296 
L 299.103228 -235.834785 
L 292.477625 -201.323796 
L 285.852022 -195.459612 
L 279.226419 -185.770014 
L 272.600816 -256.365276 
L 265.975213 -206.312785 
L 259.34961 -248.000221 
L 252.724007 -221.951054 
L 246.098404 -259.284219 
L 239.472801 -120.907082 
L 232.847199 -180.830725 
L 226.221596 -163.885593 
L 219.595993 -197.170397 
L 212.97039 -207.478748 
L 206.344787 -221.200775 
L 199.719184 -233.256831 
L 193.093581 -227.60784 
L 186.467978 -265.794348 
L 179.842375 -230.047843 
L 173.216772 -270.452099 
L 166.591169 -236.225297 
L 159.965566 -181.460089 
L 153.339963 -203.321465 
L 146.71436 -217.064097 
L 140.088757 -246.982635 
L 133.463154 -227.687281 
L 126.837551 -212.662434 
L 120.211948 -208.179939 
L 113.586345 -176.422866 
L 106.960742 -245.107821 
L 100.335139 -246.796346 
L 93.709536 -203.475738 
L 87.083933 -235.614481 
L 80.45833 -239.98798 
L 73.832727 -201.619188 
z
" style="stroke: #ff7f0e; stroke-opacity: 0.2"/>
    </defs>
    <g clip-path="url(#pb2988460cd)">
     <use xlink:href="#m6cdf99ab6c" x="0" y="345.6" style="fill: #ff7f0e; fill-opacity: 0.2; stroke: #ff7f0e; stroke-opacity: 0.2"/>
    </g>
   </g>
   <g id="matplotlib.axis_1">
    <g id="xtick_1">
     <g id="line2d_1">
      <defs>
       <path id="m3955e61632" d="M 0 0 
L 0 3.5 
" style="stroke: #000000; stroke-width: 0.8"/>
      </defs>
      <g>
       <use xlink:href="#m3955e61632" x="73.832727" y="307.584" style="stroke: #000000; stroke-width: 0.8"/>
      </g>
     </g>
     <g id="text_1">
      <!-- 0 -->
      <g transform="translate(70.651477 322.182437) scale(0.1 -0.1)">
       <defs>
        <path id="DejaVuSans-30" d="M 2034 4250 
Q 1547 4250 1301 3770 
Q 1056 3291 1056 2328 
Q 1056 1369 1301 889 
Q 1547 409 2034 409 
Q 2525 409 2770 889 
Q 3016 1369 3016 2328 
Q 3016 3291 2770 3770 
Q 2525 4250 2034 4250 
z
M 2034 4750 
Q 2819 4750 3233 4129 
Q 3647 3509 3647 2328 
Q 3647 1150 3233 529 
Q 2819 -91 2034 -91 
Q 1250 -91 836 529 
Q 422 1150 422 2328 
Q 422 3509 836 4129 
Q 1250 4750 2034 4750 
z
" transform="scale(0.015625)"/>
       </defs>
       <use xlink:href="#DejaVuSans-30"/>
      </g>
     </g>
    </g>
    <g id="xtick_2">
     <g id="line2d_2">
      <g>
       <use xlink:href="#m3955e61632" x="140.088757" y="307.584" style="stroke: #000000; stroke-width: 0.8"/>
      </g>
     </g>
     <g id="text_2">
      <!-- 2000 -->
      <g transform="translate(127.363757 322.182437) scale(0.1 -0.1)">
       <defs>
        <path id="DejaVuSans-32" d="M 1228 531 
L 3431 531 
L 3431 0 
L 469 0 
L 469 531 
Q 828 903 1448 1529 
Q 2069 2156 2228 2338 
Q 2531 2678 2651 2914 
Q 2772 3150 2772 3378 
Q 2772 3750 2511 3984 
Q 2250 4219 1831 4219 
Q 1534 4219 1204 4116 
Q 875 4013 500 3803 
L 500 4441 
Q 881 4594 1212 4672 
Q 1544 4750 1819 4750 
Q 2544 4750 2975 4387 
Q 3406 4025 3406 3419 
Q 3406 3131 3298 2873 
Q 3191 2616 2906 2266 
Q 2828 2175 2409 1742 
Q 1991 1309 1228 531 
z
" transform="scale(0.015625)"/>
       </defs>
       <use xlink:href="#DejaVuSans-32"/>
       <use xlink:href="#DejaVuSans-30" transform="translate(63.623047 0)"/>
       <use xlink:href="#DejaVuSans-30" transform="translate(127.246094 0)"/>
       <use xlink:href="#DejaVuSans-30" transform="translate(190.869141 0)"/>
      </g>
     </g>
    </g>
    <g id="xtick_3">
     <g id="line2d_3">
      <g>
       <use xlink:href="#m3955e61632" x="206.344787" y="307.584" style="stroke: #000000; stroke-width: 0.8"/>
      </g>
     </g>
     <g id="text_3">
      <!-- 4000 -->
      <g transform="translate(193.619787 322.182437) scale(0.1 -0.1)">
       <defs>
        <path id="DejaVuSans-34" d="M 2419 4116 
L 825 1625 
L 2419 1625 
L 2419 4116 
z
M 2253 4666 
L 3047 4666 
L 3047 1625 
L 3713 1625 
L 3713 1100 
L 3047 1100 
L 3047 0 
L 2419 0 
L 2419 1100 
L 313 1100 
L 313 1709 
L 2253 4666 
z
" transform="scale(0.015625)"/>
       </defs>
       <use xlink:href="#DejaVuSans-34"/>
       <use xlink:href="#DejaVuSans-30" transform="translate(63.623047 0)"/>
       <use xlink:href="#DejaVuSans-30" transform="translate(127.246094 0)"/>
       <use xlink:href="#DejaVuSans-30" transform="translate(190.869141 0)"/>
      </g>
     </g>
    </g>
    <g id="xtick_4">
     <g id="line2d_4">
      <g>
       <use xlink:href="#m3955e61632" x="272.600816" y="307.584" style="stroke: #000000; stroke-width: 0.8"/>
      </g>
     </g>
     <g id="text_4">
      <!-- 6000 -->
      <g transform="translate(259.875816 322.182437) scale(0.1 -0.1)">
       <defs>
        <path id="DejaVuSans-36" d="M 2113 2584 
Q 1688 2584 1439 2293 
Q 1191 2003 1191 1497 
Q 1191 994 1439 701 
Q 1688 409 2113 409 
Q 2538 409 2786 701 
Q 3034 994 3034 1497 
Q 3034 2003 2786 2293 
Q 2538 2584 2113 2584 
z
M 3366 4563 
L 3366 3988 
Q 3128 4100 2886 4159 
Q 2644 4219 2406 4219 
Q 1781 4219 1451 3797 
Q 1122 3375 1075 2522 
Q 1259 2794 1537 2939 
Q 1816 3084 2150 3084 
Q 2853 3084 3261 2657 
Q 3669 2231 3669 1497 
Q 3669 778 3244 343 
Q 2819 -91 2113 -91 
Q 1303 -91 875 529 
Q 447 1150 447 2328 
Q 447 3434 972 4092 
Q 1497 4750 2381 4750 
Q 2619 4750 2861 4703 
Q 3103 4656 3366 4563 
z
" transform="scale(0.015625)"/>
       </defs>
       <use xlink:href="#DejaVuSans-36"/>
       <use xlink:href="#DejaVuSans-30" transform="translate(63.623047 0)"/>
       <use xlink:href="#DejaVuSans-30" transform="translate(127.246094 0)"/>
       <use xlink:href="#DejaVuSans-30" transform="translate(190.869141 0)"/>
      </g>
     </g>
    </g>
    <g id="xtick_5">
     <g id="line2d_5">
      <g>
       <use xlink:href="#m3955e61632" x="338.856846" y="307.584" style="stroke: #000000; stroke-width: 0.8"/>
      </g>
     </g>
     <g id="text_5">
      <!-- 8000 -->
      <g transform="translate(326.131846 322.182437) scale(0.1 -0.1)">
       <defs>
        <path id="DejaVuSans-38" d="M 2034 2216 
Q 1584 2216 1326 1975 
Q 1069 1734 1069 1313 
Q 1069 891 1326 650 
Q 1584 409 2034 409 
Q 2484 409 2743 651 
Q 3003 894 3003 1313 
Q 3003 1734 2745 1975 
Q 2488 2216 2034 2216 
z
M 1403 2484 
Q 997 2584 770 2862 
Q 544 3141 544 3541 
Q 544 4100 942 4425 
Q 1341 4750 2034 4750 
Q 2731 4750 3128 4425 
Q 3525 4100 3525 3541 
Q 3525 3141 3298 2862 
Q 3072 2584 2669 2484 
Q 3125 2378 3379 2068 
Q 3634 1759 3634 1313 
Q 3634 634 3220 271 
Q 2806 -91 2034 -91 
Q 1263 -91 848 271 
Q 434 634 434 1313 
Q 434 1759 690 2068 
Q 947 2378 1403 2484 
z
M 1172 3481 
Q 1172 3119 1398 2916 
Q 1625 2713 2034 2713 
Q 2441 2713 2670 2916 
Q 2900 3119 2900 3481 
Q 2900 3844 2670 4047 
Q 2441 4250 2034 4250 
Q 1625 4250 1398 4047 
Q 1172 3844 1172 3481 
z
" transform="scale(0.015625)"/>
       </defs>
       <use xlink:href="#DejaVuSans-38"/>
       <use xlink:href="#DejaVuSans-30" transform="translate(63.623047 0)"/>
       <use xlink:href="#DejaVuSans-30" transform="translate(127.246094 0)"/>
       <use xlink:href="#DejaVuSans-30" transform="translate(190.869141 0)"/>
      </g>
     </g>
    </g>
    <g id="xtick_6">
     <g id="line2d_6">
      <g>
       <use xlink:href="#m3955e61632" x="405.112876" y="307.584" style="stroke: #000000; stroke-width: 0.8"/>
      </g>
     </g>
     <g id="text_6">
      <!-- 10000 -->
      <g transform="translate(389.206626 322.182437) scale(0.1 -0.1)">
       <defs>
        <path id="DejaVuSans-31" d="M 794 531 
L 1825 531 
L 1825 4091 
L 703 3866 
L 703 4441 
L 1819 4666 
L 2450 4666 
L 2450 531 
L 3481 531 
L 3481 0 
L 794 0 
L 794 531 
z
" transform="scale(0.015625)"/>
       </defs>
       <use xlink:href="#DejaVuSans-31"/>
       <use xlink:href="#DejaVuSans-30" transform="translate(63.623047 0)"/>
       <use xlink:href="#DejaVuSans-30" transform="translate(127.246094 0)"/>
       <use xlink:href="#DejaVuSans-30" transform="translate(190.869141 0)"/>
       <use xlink:href="#DejaVuSans-30" transform="translate(254.492188 0)"/>
      </g>
     </g>
    </g>
    <g id="text_7">
     <!-- Episode -->
     <g transform="translate(216.5225 335.860562) scale(0.1 -0.1)">
      <defs>
       <path id="DejaVuSans-45" d="M 628 4666 
L 3578 4666 
L 3578 4134 
L 1259 4134 
L 1259 2753 
L 3481 2753 
L 3481 2222 
L 1259 2222 
L 1259 531 
L 3634 531 
L 3634 0 
L 628 0 
L 628 4666 
z
" transform="scale(0.015625)"/>
       <path id="DejaVuSans-70" d="M 1159 525 
L 1159 -1331 
L 581 -1331 
L 581 3500 
L 1159 3500 
L 1159 2969 
Q 1341 3281 1617 3432 
Q 1894 3584 2278 3584 
Q 2916 3584 3314 3078 
Q 3713 2572 3713 1747 
Q 3713 922 3314 415 
Q 2916 -91 2278 -91 
Q 1894 -91 1617 61 
Q 1341 213 1159 525 
z
M 3116 1747 
Q 3116 2381 2855 2742 
Q 2594 3103 2138 3103 
Q 1681 3103 1420 2742 
Q 1159 2381 1159 1747 
Q 1159 1113 1420 752 
Q 1681 391 2138 391 
Q 2594 391 2855 752 
Q 3116 1113 3116 1747 
z
" transform="scale(0.015625)"/>
       <path id="DejaVuSans-69" d="M 603 3500 
L 1178 3500 
L 1178 0 
L 603 0 
L 603 3500 
z
M 603 4863 
L 1178 4863 
L 1178 4134 
L 603 4134 
L 603 4863 
z
" transform="scale(0.015625)"/>
       <path id="DejaVuSans-73" d="M 2834 3397 
L 2834 2853 
Q 2591 2978 2328 3040 
Q 2066 3103 1784 3103 
Q 1356 3103 1142 2972 
Q 928 2841 928 2578 
Q 928 2378 1081 2264 
Q 1234 2150 1697 2047 
L 1894 2003 
Q 2506 1872 2764 1633 
Q 3022 1394 3022 966 
Q 3022 478 2636 193 
Q 2250 -91 1575 -91 
Q 1294 -91 989 -36 
Q 684 19 347 128 
L 347 722 
Q 666 556 975 473 
Q 1284 391 1588 391 
Q 1994 391 2212 530 
Q 2431 669 2431 922 
Q 2431 1156 2273 1281 
Q 2116 1406 1581 1522 
L 1381 1569 
Q 847 1681 609 1914 
Q 372 2147 372 2553 
Q 372 3047 722 3315 
Q 1072 3584 1716 3584 
Q 2034 3584 2315 3537 
Q 2597 3491 2834 3397 
z
" transform="scale(0.015625)"/>
       <path id="DejaVuSans-6f" d="M 1959 3097 
Q 1497 3097 1228 2736 
Q 959 2375 959 1747 
Q 959 1119 1226 758 
Q 1494 397 1959 397 
Q 2419 397 2687 759 
Q 2956 1122 2956 1747 
Q 2956 2369 2687 2733 
Q 2419 3097 1959 3097 
z
M 1959 3584 
Q 2709 3584 3137 3096 
Q 3566 2609 3566 1747 
Q 3566 888 3137 398 
Q 2709 -91 1959 -91 
Q 1206 -91 779 398 
Q 353 888 353 1747 
Q 353 2609 779 3096 
Q 1206 3584 1959 3584 
z
" transform="scale(0.015625)"/>
       <path id="DejaVuSans-64" d="M 2906 2969 
L 2906 4863 
L 3481 4863 
L 3481 0 
L 2906 0 
L 2906 525 
Q 2725 213 2448 61 
Q 2172 -91 1784 -91 
Q 1150 -91 751 415 
Q 353 922 353 1747 
Q 353 2572 751 3078 
Q 1150 3584 1784 3584 
Q 2172 3584 2448 3432 
Q 2725 3281 2906 2969 
z
M 947 1747 
Q 947 1113 1208 752 
Q 1469 391 1925 391 
Q 2381 391 2643 752 
Q 2906 1113 2906 1747 
Q 2906 2381 2643 2742 
Q 2381 3103 1925 3103 
Q 1469 3103 1208 2742 
Q 947 2381 947 1747 
z
" transform="scale(0.015625)"/>
       <path id="DejaVuSans-65" d="M 3597 1894 
L 3597 1613 
L 953 1613 
Q 991 1019 1311 708 
Q 1631 397 2203 397 
Q 2534 397 2845 478 
Q 3156 559 3463 722 
L 3463 178 
Q 3153 47 2828 -22 
Q 2503 -91 2169 -91 
Q 1331 -91 842 396 
Q 353 884 353 1716 
Q 353 2575 817 3079 
Q 1281 3584 2069 3584 
Q 2775 3584 3186 3129 
Q 3597 2675 3597 1894 
z
M 3022 2063 
Q 3016 2534 2758 2815 
Q 2500 3097 2075 3097 
Q 1594 3097 1305 2825 
Q 1016 2553 972 2059 
L 3022 2063 
z
" transform="scale(0.015625)"/>
      </defs>
      <use xlink:href="#DejaVuSans-45"/>
      <use xlink:href="#DejaVuSans-70" transform="translate(63.183594 0)"/>
      <use xlink:href="#DejaVuSans-69" transform="translate(126.660156 0)"/>
      <use xlink:href="#DejaVuSans-73" transform="translate(154.443359 0)"/>
      <use xlink:href="#DejaVuSans-6f" transform="translate(206.542969 0)"/>
      <use xlink:href="#DejaVuSans-64" transform="translate(267.724609 0)"/>
      <use xlink:href="#DejaVuSans-65" transform="translate(331.201172 0)"/>
     </g>
    </g>
   </g>
   <g id="matplotlib.axis_2">
    <g id="ytick_1">
     <g id="line2d_7">
      <defs>
       <path id="mf305807f4f" d="M 0 0 
L -3.5 0 
" style="stroke: #000000; stroke-width: 0.8"/>
      </defs>
      <g>
       <use xlink:href="#mf305807f4f" x="57.6" y="287.796556" style="stroke: #000000; stroke-width: 0.8"/>
      </g>
     </g>
     <g id="text_8">
      <!-- −0.03 -->
      <g transform="translate(19.954687 291.595775) scale(0.1 -0.1)">
       <defs>
        <path id="DejaVuSans-2212" d="M 678 2272 
L 4684 2272 
L 4684 1741 
L 678 1741 
L 678 2272 
z
" transform="scale(0.015625)"/>
        <path id="DejaVuSans-2e" d="M 684 794 
L 1344 794 
L 1344 0 
L 684 0 
L 684 794 
z
" transform="scale(0.015625)"/>
        <path id="DejaVuSans-33" d="M 2597 2516 
Q 3050 2419 3304 2112 
Q 3559 1806 3559 1356 
Q 3559 666 3084 287 
Q 2609 -91 1734 -91 
Q 1441 -91 1130 -33 
Q 819 25 488 141 
L 488 750 
Q 750 597 1062 519 
Q 1375 441 1716 441 
Q 2309 441 2620 675 
Q 2931 909 2931 1356 
Q 2931 1769 2642 2001 
Q 2353 2234 1838 2234 
L 1294 2234 
L 1294 2753 
L 1863 2753 
Q 2328 2753 2575 2939 
Q 2822 3125 2822 3475 
Q 2822 3834 2567 4026 
Q 2313 4219 1838 4219 
Q 1578 4219 1281 4162 
Q 984 4106 628 3988 
L 628 4550 
Q 988 4650 1302 4700 
Q 1616 4750 1894 4750 
Q 2613 4750 3031 4423 
Q 3450 4097 3450 3541 
Q 3450 3153 3228 2886 
Q 3006 2619 2597 2516 
z
" transform="scale(0.015625)"/>
       </defs>
       <use xlink:href="#DejaVuSans-2212"/>
       <use xlink:href="#DejaVuSans-30" transform="translate(83.789062 0)"/>
       <use xlink:href="#DejaVuSans-2e" transform="translate(147.412109 0)"/>
       <use xlink:href="#DejaVuSans-30" transform="translate(179.199219 0)"/>
       <use xlink:href="#DejaVuSans-33" transform="translate(242.822266 0)"/>
      </g>
     </g>
    </g>
    <g id="ytick_2">
     <g id="line2d_8">
      <g>
       <use xlink:href="#mf305807f4f" x="57.6" y="256.804694" style="stroke: #000000; stroke-width: 0.8"/>
      </g>
     </g>
     <g id="text_9">
      <!-- −0.02 -->
      <g transform="translate(19.954687 260.603912) scale(0.1 -0.1)">
       <use xlink:href="#DejaVuSans-2212"/>
       <use xlink:href="#DejaVuSans-30" transform="translate(83.789062 0)"/>
       <use xlink:href="#DejaVuSans-2e" transform="translate(147.412109 0)"/>
       <use xlink:href="#DejaVuSans-30" transform="translate(179.199219 0)"/>
       <use xlink:href="#DejaVuSans-32" transform="translate(242.822266 0)"/>
      </g>
     </g>
    </g>
    <g id="ytick_3">
     <g id="line2d_9">
      <g>
       <use xlink:href="#mf305807f4f" x="57.6" y="225.812831" style="stroke: #000000; stroke-width: 0.8"/>
      </g>
     </g>
     <g id="text_10">
      <!-- −0.01 -->
      <g transform="translate(19.954687 229.61205) scale(0.1 -0.1)">
       <use xlink:href="#DejaVuSans-2212"/>
       <use xlink:href="#DejaVuSans-30" transform="translate(83.789062 0)"/>
       <use xlink:href="#DejaVuSans-2e" transform="translate(147.412109 0)"/>
       <use xlink:href="#DejaVuSans-30" transform="translate(179.199219 0)"/>
       <use xlink:href="#DejaVuSans-31" transform="translate(242.822266 0)"/>
      </g>
     </g>
    </g>
    <g id="ytick_4">
     <g id="line2d_10">
      <g>
       <use xlink:href="#mf305807f4f" x="57.6" y="194.820968" style="stroke: #000000; stroke-width: 0.8"/>
      </g>
     </g>
     <g id="text_11">
      <!-- 0.00 -->
      <g transform="translate(28.334375 198.620187) scale(0.1 -0.1)">
       <use xlink:href="#DejaVuSans-30"/>
       <use xlink:href="#DejaVuSans-2e" transform="translate(63.623047 0)"/>
       <use xlink:href="#DejaVuSans-30" transform="translate(95.410156 0)"/>
       <use xlink:href="#DejaVuSans-30" transform="translate(159.033203 0)"/>
      </g>
     </g>
    </g>
    <g id="ytick_5">
     <g id="line2d_11">
      <g>
       <use xlink:href="#mf305807f4f" x="57.6" y="163.829105" style="stroke: #000000; stroke-width: 0.8"/>
      </g>
     </g>
     <g id="text_12">
      <!-- 0.01 -->
      <g transform="translate(28.334375 167.628324) scale(0.1 -0.1)">
       <use xlink:href="#DejaVuSans-30"/>
       <use xlink:href="#DejaVuSans-2e" transform="translate(63.623047 0)"/>
       <use xlink:href="#DejaVuSans-30" transform="translate(95.410156 0)"/>
       <use xlink:href="#DejaVuSans-31" transform="translate(159.033203 0)"/>
      </g>
     </g>
    </g>
    <g id="ytick_6">
     <g id="line2d_12">
      <g>
       <use xlink:href="#mf305807f4f" x="57.6" y="132.837243" style="stroke: #000000; stroke-width: 0.8"/>
      </g>
     </g>
     <g id="text_13">
      <!-- 0.02 -->
      <g transform="translate(28.334375 136.636461) scale(0.1 -0.1)">
       <use xlink:href="#DejaVuSans-30"/>
       <use xlink:href="#DejaVuSans-2e" transform="translate(63.623047 0)"/>
       <use xlink:href="#DejaVuSans-30" transform="translate(95.410156 0)"/>
       <use xlink:href="#DejaVuSans-32" transform="translate(159.033203 0)"/>
      </g>
     </g>
    </g>
    <g id="ytick_7">
     <g id="line2d_13">
      <g>
       <use xlink:href="#mf305807f4f" x="57.6" y="101.84538" style="stroke: #000000; stroke-width: 0.8"/>
      </g>
     </g>
     <g id="text_14">
      <!-- 0.03 -->
      <g transform="translate(28.334375 105.644599) scale(0.1 -0.1)">
       <use xlink:href="#DejaVuSans-30"/>
       <use xlink:href="#DejaVuSans-2e" transform="translate(63.623047 0)"/>
       <use xlink:href="#DejaVuSans-30" transform="translate(95.410156 0)"/>
       <use xlink:href="#DejaVuSans-33" transform="translate(159.033203 0)"/>
      </g>
     </g>
    </g>
    <g id="ytick_8">
     <g id="line2d_14">
      <g>
       <use xlink:href="#mf305807f4f" x="57.6" y="70.853517" style="stroke: #000000; stroke-width: 0.8"/>
      </g>
     </g>
     <g id="text_15">
      <!-- 0.04 -->
      <g transform="translate(28.334375 74.652736) scale(0.1 -0.1)">
       <use xlink:href="#DejaVuSans-30"/>
       <use xlink:href="#DejaVuSans-2e" transform="translate(63.623047 0)"/>
       <use xlink:href="#DejaVuSans-30" transform="translate(95.410156 0)"/>
       <use xlink:href="#DejaVuSans-34" transform="translate(159.033203 0)"/>
      </g>
     </g>
    </g>
    <g id="text_16">
     <!-- Reward -->
     <g transform="translate(13.875 193.149094) rotate(-90) scale(0.1 -0.1)">
      <defs>
       <path id="DejaVuSans-52" d="M 2841 2188 
Q 3044 2119 3236 1894 
Q 3428 1669 3622 1275 
L 4263 0 
L 3584 0 
L 2988 1197 
Q 2756 1666 2539 1819 
Q 2322 1972 1947 1972 
L 1259 1972 
L 1259 0 
L 628 0 
L 628 4666 
L 2053 4666 
Q 2853 4666 3247 4331 
Q 3641 3997 3641 3322 
Q 3641 2881 3436 2590 
Q 3231 2300 2841 2188 
z
M 1259 4147 
L 1259 2491 
L 2053 2491 
Q 2509 2491 2742 2702 
Q 2975 2913 2975 3322 
Q 2975 3731 2742 3939 
Q 2509 4147 2053 4147 
L 1259 4147 
z
" transform="scale(0.015625)"/>
       <path id="DejaVuSans-77" d="M 269 3500 
L 844 3500 
L 1563 769 
L 2278 3500 
L 2956 3500 
L 3675 769 
L 4391 3500 
L 4966 3500 
L 4050 0 
L 3372 0 
L 2619 2869 
L 1863 0 
L 1184 0 
L 269 3500 
z
" transform="scale(0.015625)"/>
       <path id="DejaVuSans-61" d="M 2194 1759 
Q 1497 1759 1228 1600 
Q 959 1441 959 1056 
Q 959 750 1161 570 
Q 1363 391 1709 391 
Q 2188 391 2477 730 
Q 2766 1069 2766 1631 
L 2766 1759 
L 2194 1759 
z
M 3341 1997 
L 3341 0 
L 2766 0 
L 2766 531 
Q 2569 213 2275 61 
Q 1981 -91 1556 -91 
Q 1019 -91 701 211 
Q 384 513 384 1019 
Q 384 1609 779 1909 
Q 1175 2209 1959 2209 
L 2766 2209 
L 2766 2266 
Q 2766 2663 2505 2880 
Q 2244 3097 1772 3097 
Q 1472 3097 1187 3025 
Q 903 2953 641 2809 
L 641 3341 
Q 956 3463 1253 3523 
Q 1550 3584 1831 3584 
Q 2591 3584 2966 3190 
Q 3341 2797 3341 1997 
z
" transform="scale(0.015625)"/>
       <path id="DejaVuSans-72" d="M 2631 2963 
Q 2534 3019 2420 3045 
Q 2306 3072 2169 3072 
Q 1681 3072 1420 2755 
Q 1159 2438 1159 1844 
L 1159 0 
L 581 0 
L 581 3500 
L 1159 3500 
L 1159 2956 
Q 1341 3275 1631 3429 
Q 1922 3584 2338 3584 
Q 2397 3584 2469 3576 
Q 2541 3569 2628 3553 
L 2631 2963 
z
" transform="scale(0.015625)"/>
      </defs>
      <use xlink:href="#DejaVuSans-52"/>
      <use xlink:href="#DejaVuSans-65" transform="translate(64.982422 0)"/>
      <use xlink:href="#DejaVuSans-77" transform="translate(126.505859 0)"/>
      <use xlink:href="#DejaVuSans-61" transform="translate(208.292969 0)"/>
      <use xlink:href="#DejaVuSans-72" transform="translate(269.572266 0)"/>
      <use xlink:href="#DejaVuSans-64" transform="translate(308.935547 0)"/>
     </g>
    </g>
   </g>
   <g id="line2d_15">
    <path d="M 73.832727 212.176411 
L 80.45833 266.72209 
L 87.083933 176.22585 
L 93.709536 122.300009 
L 100.335139 223.953319 
L 106.960742 130.977731 
L 113.586345 160.729919 
L 120.211948 219.614458 
L 126.837551 185.523409 
L 133.463154 192.341619 
L 140.088757 183.663898 
L 146.71436 169.407641 
L 153.339963 181.184548 
L 159.965566 176.845688 
L 166.591169 189.86227 
L 173.216772 170.647315 
L 179.842375 171.267152 
L 186.467978 167.548129 
L 193.093581 157.010896 
L 199.719184 198.539992 
L 206.344787 197.920154 
L 212.97039 145.233988 
L 219.595993 189.86227 
L 226.221596 218.374784 
L 232.847199 148.333174 
L 239.472801 215.275598 
L 246.098404 152.672035 
L 252.724007 232.631041 
L 259.34961 163.209268 
L 265.975213 218.374784 
L 272.600816 152.672035 
L 279.226419 165.688617 
L 285.852022 176.845688 
L 292.477625 205.978039 
L 299.103228 187.382921 
L 305.728831 163.829105 
L 312.354434 130.357894 
L 318.980037 153.291872 
L 325.60564 155.151384 
L 332.231243 179.325037 
L 338.856846 222.093807 
L 345.482449 207.217713 
L 352.108052 123.539684 
L 358.733655 170.647315 
L 365.359258 124.779358 
L 371.984861 161.969594 
L 378.610464 200.399503 
L 385.236067 169.407641 
L 391.86167 210.316899 
L 398.487273 170.647315 
" clip-path="url(#pb2988460cd)" style="fill: none; stroke: #1f77b4; stroke-width: 1.5; stroke-linecap: square"/>
   </g>
   <g id="line2d_16">
    <path d="M 73.832727 175.606013 
L 80.45833 139.655452 
L 87.083933 134.076917 
L 93.709536 172.506827 
L 100.335139 122.919846 
L 106.960742 139.655452 
L 113.586345 194.201131 
L 120.211948 169.407641 
L 126.837551 166.928292 
L 133.463154 151.43236 
L 140.088757 126.019033 
L 146.71436 156.391058 
L 153.339963 183.04406 
L 159.965566 194.201131 
L 166.591169 153.291872 
L 173.216772 130.357894 
L 179.842375 145.853825 
L 186.467978 124.159521 
L 193.093581 142.754639 
L 199.719184 137.795941 
L 206.344787 166.308454 
L 212.97039 173.126664 
L 219.595993 184.903572 
L 226.221596 210.936737 
L 232.847199 216.515272 
L 239.472801 243.168274 
L 246.098404 114.861962 
L 252.724007 167.548129 
L 259.34961 135.316592 
L 265.975213 166.308454 
L 272.600816 127.258707 
L 279.226419 188.622596 
L 285.852022 181.184548 
L 292.477625 176.845688 
L 299.103228 148.333174 
L 305.728831 202.878852 
L 312.354434 116.101637 
L 318.980037 185.523409 
L 325.60564 170.647315 
L 332.231243 169.407641 
L 338.856846 165.688617 
L 345.482449 96.266845 
L 352.108052 146.473662 
L 358.733655 155.771221 
L 365.359258 245.027786 
L 371.984861 185.523409 
L 378.610464 205.358201 
L 385.236067 165.06878 
L 391.86167 179.325037 
L 398.487273 171.267152 
" clip-path="url(#pb2988460cd)" style="fill: none; stroke: #ff7f0e; stroke-width: 1.5; stroke-linecap: square"/>
   </g>
   <g id="line2d_17"/>
   <g id="line2d_18"/>
   <g id="line2d_19">
    <path d="M 73.832727 150.026642 
L 100.335139 152.955252 
L 100.335139 152.955252 
L 126.837551 156.073255 
L 126.837551 156.073255 
L 153.339963 159.433436 
L 153.339963 159.433436 
L 166.591169 161.274461 
L 166.591169 161.274461 
L 179.842375 163.352029 
L 179.842375 163.352029 
L 193.093581 165.379281 
L 193.093581 165.379281 
L 206.344787 167.03211 
L 206.344787 167.03211 
L 219.595993 168.363988 
L 219.595993 168.363988 
L 232.847199 169.50458 
L 232.847199 169.50458 
L 246.098404 170.455179 
L 246.098404 170.455179 
L 259.34961 171.097387 
L 259.34961 171.097387 
L 272.600816 171.50696 
L 272.600816 171.50696 
L 285.852022 171.679132 
L 285.852022 171.679132 
L 292.477625 171.626844 
L 292.477625 171.626844 
L 332.231243 172.347888 
L 332.231243 172.347888 
L 358.733655 172.802188 
L 358.733655 172.802188 
L 378.610464 173.370026 
L 378.610464 173.370026 
L 398.487273 174.202122 
L 398.487273 174.202122 
" clip-path="url(#pb2988460cd)" style="fill: none; stroke: #2ca02c; stroke-width: 2.25; stroke-linecap: square"/>
   </g>
   <g id="line2d_20">
    <path d="M 73.832727 195.906107 
L 87.083933 193.364629 
L 87.083933 193.364629 
L 106.960742 189.806387 
L 106.960742 189.806387 
L 126.837551 186.462862 
L 126.837551 186.462862 
L 146.71436 183.315393 
L 146.71436 183.315393 
L 159.965566 181.365394 
L 159.965566 181.365394 
L 166.591169 180.476423 
L 166.591169 180.476423 
L 173.216772 179.708772 
L 173.216772 179.708772 
L 179.842375 179.186763 
L 179.842375 179.186763 
L 193.093581 179.348339 
L 193.093581 179.348339 
L 219.595993 179.848005 
L 219.595993 179.848005 
L 246.098404 179.852919 
L 246.098404 179.852919 
L 259.34961 179.721625 
L 259.34961 179.721625 
L 265.975213 179.515411 
L 265.975213 179.515411 
L 272.600816 179.182236 
L 272.600816 179.182236 
L 285.852022 178.161981 
L 285.852022 178.161981 
L 292.477625 177.517625 
L 292.477625 177.517625 
L 299.103228 176.693108 
L 299.103228 176.693108 
L 312.354434 175.39855 
L 312.354434 175.39855 
L 378.610464 169.289931 
L 378.610464 169.289931 
L 398.487273 167.492246 
L 398.487273 167.492246 
" clip-path="url(#pb2988460cd)" style="fill: none; stroke: #d62728; stroke-width: 2.25; stroke-linecap: square"/>
   </g>
   <g id="patch_3">
    <path d="M 57.6 307.584 
L 57.6 41.472 
" style="fill: none; stroke: #000000; stroke-width: 0.8; stroke-linejoin: miter; stroke-linecap: square"/>
   </g>
   <g id="patch_4">
    <path d="M 414.72 307.584 
L 414.72 41.472 
" style="fill: none; stroke: #000000; stroke-width: 0.8; stroke-linejoin: miter; stroke-linecap: square"/>
   </g>
   <g id="patch_5">
    <path d="M 57.6 307.584 
L 414.72 307.584 
" style="fill: none; stroke: #000000; stroke-width: 0.8; stroke-linejoin: miter; stroke-linecap: square"/>
   </g>
   <g id="patch_6">
    <path d="M 57.6 41.472 
L 414.72 41.472 
" style="fill: none; stroke: #000000; stroke-width: 0.8; stroke-linejoin: miter; stroke-linecap: square"/>
   </g>
   <g id="text_17">
    <!-- DQN vs NFSP Reward During Training -->
    <g transform="translate(124.671563 35.472) scale(0.12 -0.12)">
     <defs>
      <path id="DejaVuSans-44" d="M 1259 4147 
L 1259 519 
L 2022 519 
Q 2988 519 3436 956 
Q 3884 1394 3884 2338 
Q 3884 3275 3436 3711 
Q 2988 4147 2022 4147 
L 1259 4147 
z
M 628 4666 
L 1925 4666 
Q 3281 4666 3915 4102 
Q 4550 3538 4550 2338 
Q 4550 1131 3912 565 
Q 3275 0 1925 0 
L 628 0 
L 628 4666 
z
" transform="scale(0.015625)"/>
      <path id="DejaVuSans-51" d="M 2522 4238 
Q 1834 4238 1429 3725 
Q 1025 3213 1025 2328 
Q 1025 1447 1429 934 
Q 1834 422 2522 422 
Q 3209 422 3611 934 
Q 4013 1447 4013 2328 
Q 4013 3213 3611 3725 
Q 3209 4238 2522 4238 
z
M 3406 84 
L 4238 -825 
L 3475 -825 
L 2784 -78 
Q 2681 -84 2626 -87 
Q 2572 -91 2522 -91 
Q 1538 -91 948 567 
Q 359 1225 359 2328 
Q 359 3434 948 4092 
Q 1538 4750 2522 4750 
Q 3503 4750 4090 4092 
Q 4678 3434 4678 2328 
Q 4678 1516 4351 937 
Q 4025 359 3406 84 
z
" transform="scale(0.015625)"/>
      <path id="DejaVuSans-4e" d="M 628 4666 
L 1478 4666 
L 3547 763 
L 3547 4666 
L 4159 4666 
L 4159 0 
L 3309 0 
L 1241 3903 
L 1241 0 
L 628 0 
L 628 4666 
z
" transform="scale(0.015625)"/>
      <path id="DejaVuSans-20" transform="scale(0.015625)"/>
      <path id="DejaVuSans-76" d="M 191 3500 
L 800 3500 
L 1894 563 
L 2988 3500 
L 3597 3500 
L 2284 0 
L 1503 0 
L 191 3500 
z
" transform="scale(0.015625)"/>
      <path id="DejaVuSans-46" d="M 628 4666 
L 3309 4666 
L 3309 4134 
L 1259 4134 
L 1259 2759 
L 3109 2759 
L 3109 2228 
L 1259 2228 
L 1259 0 
L 628 0 
L 628 4666 
z
" transform="scale(0.015625)"/>
      <path id="DejaVuSans-53" d="M 3425 4513 
L 3425 3897 
Q 3066 4069 2747 4153 
Q 2428 4238 2131 4238 
Q 1616 4238 1336 4038 
Q 1056 3838 1056 3469 
Q 1056 3159 1242 3001 
Q 1428 2844 1947 2747 
L 2328 2669 
Q 3034 2534 3370 2195 
Q 3706 1856 3706 1288 
Q 3706 609 3251 259 
Q 2797 -91 1919 -91 
Q 1588 -91 1214 -16 
Q 841 59 441 206 
L 441 856 
Q 825 641 1194 531 
Q 1563 422 1919 422 
Q 2459 422 2753 634 
Q 3047 847 3047 1241 
Q 3047 1584 2836 1778 
Q 2625 1972 2144 2069 
L 1759 2144 
Q 1053 2284 737 2584 
Q 422 2884 422 3419 
Q 422 4038 858 4394 
Q 1294 4750 2059 4750 
Q 2388 4750 2728 4690 
Q 3069 4631 3425 4513 
z
" transform="scale(0.015625)"/>
      <path id="DejaVuSans-50" d="M 1259 4147 
L 1259 2394 
L 2053 2394 
Q 2494 2394 2734 2622 
Q 2975 2850 2975 3272 
Q 2975 3691 2734 3919 
Q 2494 4147 2053 4147 
L 1259 4147 
z
M 628 4666 
L 2053 4666 
Q 2838 4666 3239 4311 
Q 3641 3956 3641 3272 
Q 3641 2581 3239 2228 
Q 2838 1875 2053 1875 
L 1259 1875 
L 1259 0 
L 628 0 
L 628 4666 
z
" transform="scale(0.015625)"/>
      <path id="DejaVuSans-75" d="M 544 1381 
L 544 3500 
L 1119 3500 
L 1119 1403 
Q 1119 906 1312 657 
Q 1506 409 1894 409 
Q 2359 409 2629 706 
Q 2900 1003 2900 1516 
L 2900 3500 
L 3475 3500 
L 3475 0 
L 2900 0 
L 2900 538 
Q 2691 219 2414 64 
Q 2138 -91 1772 -91 
Q 1169 -91 856 284 
Q 544 659 544 1381 
z
M 1991 3584 
L 1991 3584 
z
" transform="scale(0.015625)"/>
      <path id="DejaVuSans-6e" d="M 3513 2113 
L 3513 0 
L 2938 0 
L 2938 2094 
Q 2938 2591 2744 2837 
Q 2550 3084 2163 3084 
Q 1697 3084 1428 2787 
Q 1159 2491 1159 1978 
L 1159 0 
L 581 0 
L 581 3500 
L 1159 3500 
L 1159 2956 
Q 1366 3272 1645 3428 
Q 1925 3584 2291 3584 
Q 2894 3584 3203 3211 
Q 3513 2838 3513 2113 
z
" transform="scale(0.015625)"/>
      <path id="DejaVuSans-67" d="M 2906 1791 
Q 2906 2416 2648 2759 
Q 2391 3103 1925 3103 
Q 1463 3103 1205 2759 
Q 947 2416 947 1791 
Q 947 1169 1205 825 
Q 1463 481 1925 481 
Q 2391 481 2648 825 
Q 2906 1169 2906 1791 
z
M 3481 434 
Q 3481 -459 3084 -895 
Q 2688 -1331 1869 -1331 
Q 1566 -1331 1297 -1286 
Q 1028 -1241 775 -1147 
L 775 -588 
Q 1028 -725 1275 -790 
Q 1522 -856 1778 -856 
Q 2344 -856 2625 -561 
Q 2906 -266 2906 331 
L 2906 616 
Q 2728 306 2450 153 
Q 2172 0 1784 0 
Q 1141 0 747 490 
Q 353 981 353 1791 
Q 353 2603 747 3093 
Q 1141 3584 1784 3584 
Q 2172 3584 2450 3431 
Q 2728 3278 2906 2969 
L 2906 3500 
L 3481 3500 
L 3481 434 
z
" transform="scale(0.015625)"/>
      <path id="DejaVuSans-54" d="M -19 4666 
L 3928 4666 
L 3928 4134 
L 2272 4134 
L 2272 0 
L 1638 0 
L 1638 4134 
L -19 4134 
L -19 4666 
z
" transform="scale(0.015625)"/>
     </defs>
     <use xlink:href="#DejaVuSans-44"/>
     <use xlink:href="#DejaVuSans-51" transform="translate(77.001953 0)"/>
     <use xlink:href="#DejaVuSans-4e" transform="translate(155.712891 0)"/>
     <use xlink:href="#DejaVuSans-20" transform="translate(230.517578 0)"/>
     <use xlink:href="#DejaVuSans-76" transform="translate(262.304688 0)"/>
     <use xlink:href="#DejaVuSans-73" transform="translate(321.484375 0)"/>
     <use xlink:href="#DejaVuSans-20" transform="translate(373.583984 0)"/>
     <use xlink:href="#DejaVuSans-4e" transform="translate(405.371094 0)"/>
     <use xlink:href="#DejaVuSans-46" transform="translate(480.175781 0)"/>
     <use xlink:href="#DejaVuSans-53" transform="translate(535.945312 0)"/>
     <use xlink:href="#DejaVuSans-50" transform="translate(599.421875 0)"/>
     <use xlink:href="#DejaVuSans-20" transform="translate(659.724609 0)"/>
     <use xlink:href="#DejaVuSans-52" transform="translate(691.511719 0)"/>
     <use xlink:href="#DejaVuSans-65" transform="translate(756.494141 0)"/>
     <use xlink:href="#DejaVuSans-77" transform="translate(818.017578 0)"/>
     <use xlink:href="#DejaVuSans-61" transform="translate(899.804688 0)"/>
     <use xlink:href="#DejaVuSans-72" transform="translate(961.083984 0)"/>
     <use xlink:href="#DejaVuSans-64" transform="translate(1000.447266 0)"/>
     <use xlink:href="#DejaVuSans-20" transform="translate(1063.923828 0)"/>
     <use xlink:href="#DejaVuSans-44" transform="translate(1095.710938 0)"/>
     <use xlink:href="#DejaVuSans-75" transform="translate(1172.712891 0)"/>
     <use xlink:href="#DejaVuSans-72" transform="translate(1236.091797 0)"/>
     <use xlink:href="#DejaVuSans-69" transform="translate(1277.205078 0)"/>
     <use xlink:href="#DejaVuSans-6e" transform="translate(1304.988281 0)"/>
     <use xlink:href="#DejaVuSans-67" transform="translate(1368.367188 0)"/>
     <use xlink:href="#DejaVuSans-20" transform="translate(1431.84375 0)"/>
     <use xlink:href="#DejaVuSans-54" transform="translate(1463.630859 0)"/>
     <use xlink:href="#DejaVuSans-72" transform="translate(1509.964844 0)"/>
     <use xlink:href="#DejaVuSans-61" transform="translate(1551.078125 0)"/>
     <use xlink:href="#DejaVuSans-69" transform="translate(1612.357422 0)"/>
     <use xlink:href="#DejaVuSans-6e" transform="translate(1640.140625 0)"/>
     <use xlink:href="#DejaVuSans-69" transform="translate(1703.519531 0)"/>
     <use xlink:href="#DejaVuSans-6e" transform="translate(1731.302734 0)"/>
     <use xlink:href="#DejaVuSans-67" transform="translate(1794.681641 0)"/>
    </g>
   </g>
   <g id="legend_1">
    <g id="patch_7">
     <path d="M 64.6 302.584 
L 205.5375 302.584 
Q 207.5375 302.584 207.5375 300.584 
L 207.5375 242.8715 
Q 207.5375 240.8715 205.5375 240.8715 
L 64.6 240.8715 
Q 62.6 240.8715 62.6 242.8715 
L 62.6 300.584 
Q 62.6 302.584 64.6 302.584 
z
" style="fill: #ffffff; opacity: 0.8; stroke: #cccccc; stroke-linejoin: miter"/>
    </g>
    <g id="line2d_21">
     <path d="M 66.6 248.969937 
L 76.6 248.969937 
L 86.6 248.969937 
" style="fill: none; stroke: #1f77b4; stroke-width: 1.5; stroke-linecap: square"/>
    </g>
    <g id="text_18">
     <!-- NFSP -->
     <g transform="translate(94.6 252.469937) scale(0.1 -0.1)">
      <use xlink:href="#DejaVuSans-4e"/>
      <use xlink:href="#DejaVuSans-46" transform="translate(74.804688 0)"/>
      <use xlink:href="#DejaVuSans-53" transform="translate(130.574219 0)"/>
      <use xlink:href="#DejaVuSans-50" transform="translate(194.050781 0)"/>
     </g>
    </g>
    <g id="line2d_22">
     <path d="M 66.6 263.648062 
L 76.6 263.648062 
L 86.6 263.648062 
" style="fill: none; stroke: #ff7f0e; stroke-width: 1.5; stroke-linecap: square"/>
    </g>
    <g id="text_19">
     <!-- DQN -->
     <g transform="translate(94.6 267.148062) scale(0.1 -0.1)">
      <use xlink:href="#DejaVuSans-44"/>
      <use xlink:href="#DejaVuSans-51" transform="translate(77.001953 0)"/>
      <use xlink:href="#DejaVuSans-4e" transform="translate(155.712891 0)"/>
     </g>
    </g>
    <g id="line2d_23">
     <path d="M 66.6 278.326187 
L 76.6 278.326187 
L 86.6 278.326187 
" style="fill: none; stroke: #2ca02c; stroke-width: 2.25; stroke-linecap: square"/>
    </g>
    <g id="text_20">
     <!-- DQN Trend (LOWESS) -->
     <g transform="translate(94.6 281.826187) scale(0.1 -0.1)">
      <defs>
       <path id="DejaVuSans-28" d="M 1984 4856 
Q 1566 4138 1362 3434 
Q 1159 2731 1159 2009 
Q 1159 1288 1364 580 
Q 1569 -128 1984 -844 
L 1484 -844 
Q 1016 -109 783 600 
Q 550 1309 550 2009 
Q 550 2706 781 3412 
Q 1013 4119 1484 4856 
L 1984 4856 
z
" transform="scale(0.015625)"/>
       <path id="DejaVuSans-4c" d="M 628 4666 
L 1259 4666 
L 1259 531 
L 3531 531 
L 3531 0 
L 628 0 
L 628 4666 
z
" transform="scale(0.015625)"/>
       <path id="DejaVuSans-4f" d="M 2522 4238 
Q 1834 4238 1429 3725 
Q 1025 3213 1025 2328 
Q 1025 1447 1429 934 
Q 1834 422 2522 422 
Q 3209 422 3611 934 
Q 4013 1447 4013 2328 
Q 4013 3213 3611 3725 
Q 3209 4238 2522 4238 
z
M 2522 4750 
Q 3503 4750 4090 4092 
Q 4678 3434 4678 2328 
Q 4678 1225 4090 567 
Q 3503 -91 2522 -91 
Q 1538 -91 948 565 
Q 359 1222 359 2328 
Q 359 3434 948 4092 
Q 1538 4750 2522 4750 
z
" transform="scale(0.015625)"/>
       <path id="DejaVuSans-57" d="M 213 4666 
L 850 4666 
L 1831 722 
L 2809 4666 
L 3519 4666 
L 4500 722 
L 5478 4666 
L 6119 4666 
L 4947 0 
L 4153 0 
L 3169 4050 
L 2175 0 
L 1381 0 
L 213 4666 
z
" transform="scale(0.015625)"/>
       <path id="DejaVuSans-29" d="M 513 4856 
L 1013 4856 
Q 1481 4119 1714 3412 
Q 1947 2706 1947 2009 
Q 1947 1309 1714 600 
Q 1481 -109 1013 -844 
L 513 -844 
Q 928 -128 1133 580 
Q 1338 1288 1338 2009 
Q 1338 2731 1133 3434 
Q 928 4138 513 4856 
z
" transform="scale(0.015625)"/>
      </defs>
      <use xlink:href="#DejaVuSans-44"/>
      <use xlink:href="#DejaVuSans-51" transform="translate(77.001953 0)"/>
      <use xlink:href="#DejaVuSans-4e" transform="translate(155.712891 0)"/>
      <use xlink:href="#DejaVuSans-20" transform="translate(230.517578 0)"/>
      <use xlink:href="#DejaVuSans-54" transform="translate(262.304688 0)"/>
      <use xlink:href="#DejaVuSans-72" transform="translate(308.638672 0)"/>
      <use xlink:href="#DejaVuSans-65" transform="translate(347.501953 0)"/>
      <use xlink:href="#DejaVuSans-6e" transform="translate(409.025391 0)"/>
      <use xlink:href="#DejaVuSans-64" transform="translate(472.404297 0)"/>
      <use xlink:href="#DejaVuSans-20" transform="translate(535.880859 0)"/>
      <use xlink:href="#DejaVuSans-28" transform="translate(567.667969 0)"/>
      <use xlink:href="#DejaVuSans-4c" transform="translate(606.681641 0)"/>
      <use xlink:href="#DejaVuSans-4f" transform="translate(658.769531 0)"/>
      <use xlink:href="#DejaVuSans-57" transform="translate(737.480469 0)"/>
      <use xlink:href="#DejaVuSans-45" transform="translate(836.357422 0)"/>
      <use xlink:href="#DejaVuSans-53" transform="translate(899.541016 0)"/>
      <use xlink:href="#DejaVuSans-53" transform="translate(963.017578 0)"/>
      <use xlink:href="#DejaVuSans-29" transform="translate(1026.494141 0)"/>
     </g>
    </g>
    <g id="line2d_24">
     <path d="M 66.6 293.004312 
L 76.6 293.004312 
L 86.6 293.004312 
" style="fill: none; stroke: #d62728; stroke-width: 2.25; stroke-linecap: square"/>
    </g>
    <g id="text_21">
     <!-- NFSP Trend (LOWESS) -->
     <g transform="translate(94.6 296.504312) scale(0.1 -0.1)">
      <use xlink:href="#DejaVuSans-4e"/>
      <use xlink:href="#DejaVuSans-46" transform="translate(74.804688 0)"/>
      <use xlink:href="#DejaVuSans-53" transform="translate(130.574219 0)"/>
      <use xlink:href="#DejaVuSans-50" transform="translate(194.050781 0)"/>
      <use xlink:href="#DejaVuSans-20" transform="translate(254.353516 0)"/>
      <use xlink:href="#DejaVuSans-54" transform="translate(286.140625 0)"/>
      <use xlink:href="#DejaVuSans-72" transform="translate(332.474609 0)"/>
      <use xlink:href="#DejaVuSans-65" transform="translate(371.337891 0)"/>
      <use xlink:href="#DejaVuSans-6e" transform="translate(432.861328 0)"/>
      <use xlink:href="#DejaVuSans-64" transform="translate(496.240234 0)"/>
      <use xlink:href="#DejaVuSans-20" transform="translate(559.716797 0)"/>
      <use xlink:href="#DejaVuSans-28" transform="translate(591.503906 0)"/>
      <use xlink:href="#DejaVuSans-4c" transform="translate(630.517578 0)"/>
      <use xlink:href="#DejaVuSans-4f" transform="translate(682.605469 0)"/>
      <use xlink:href="#DejaVuSans-57" transform="translate(761.316406 0)"/>
      <use xlink:href="#DejaVuSans-45" transform="translate(860.193359 0)"/>
      <use xlink:href="#DejaVuSans-53" transform="translate(923.376953 0)"/>
      <use xlink:href="#DejaVuSans-53" transform="translate(986.853516 0)"/>
      <use xlink:href="#DejaVuSans-29" transform="translate(1050.330078 0)"/>
     </g>
    </g>
   </g>
  </g>
 </g>
 <defs>
  <clipPath id="pb2988460cd">
   <rect x="57.6" y="41.472" width="357.12" height="266.112"/>
  </clipPath>
 </defs>
</svg>
