<?xml version="1.0" encoding="utf-8" standalone="no"?>
<!DOCTYPE svg PUBLIC "-//W3C//DTD SVG 1.1//EN"
  "http://www.w3.org/Graphics/SVG/1.1/DTD/svg11.dtd">
<svg xmlns:xlink="http://www.w3.org/1999/xlink" width="460.8pt" height="345.6pt" viewBox="0 0 460.8 345.6" xmlns="http://www.w3.org/2000/svg" version="1.1">
 <metadata>
  <rdf:RDF xmlns:dc="http://purl.org/dc/elements/1.1/" xmlns:cc="http://creativecommons.org/ns#" xmlns:rdf="http://www.w3.org/1999/02/22-rdf-syntax-ns#">
   <cc:Work>
    <dc:type rdf:resource="http://purl.org/dc/dcmitype/StillImage"/>
    <dc:date>2026-06-11T11:08:48.695784</dc:date>
    <dc:format>image/svg+xml</dc:format>
    <dc:creator>
     <cc:Agent>
      <dc:title>Matplotlib v3.10.8, https://matplotlib.org/</dc:title>
     </cc:Agent>
    </dc:creator>
   </cc:Work>
  </rdf:RDF>
 </metadata>
 <defs>
  <style type="text/css">*{stroke-linejoin: round; stroke-linecap: butt}</style>
 </defs>
 <g id="figure_1">
  <g id="patch_1">
   <path d="M 0 345.6 
L 460.8 345.6 
L 460.8 0 
L 0 0 
z
" style="fill: #ffffff"/>
  </g>
  <g id="axes_1">
   <g id="patch_2">
    <path d="M 57.6 307.584 
L 414.72 307.584 
L 414.72 41.472 
L 57.6 41.472 
z
" style="fill: #ffffff"/>
   </g>
   <g id="FillBetweenPolyCollection_1">
    <defs>
     <path id="mc158376e4c" d="M 77.015615 -196.220926 
L 77.015615 -162.982003 
L 80.198503 -166.124763 
L 83.38139 -134.669367 
L 86.564278 -147.647456 
L 89.747166 -143.206261 
L 92.930053 -146.569407 
L 96.112941 -163.290858 
L 99.295829 -163.290858 
L 102.478717 -163.290858 
L 105.661604 -163.290858 
L 108.844492 -163.290858 
L 112.02738 -163.290858 
L 115.210267 -163.290858 
L 118.393155 -163.290858 
L 121.576043 -163.290858 
L 124.75893 -163.290858 
L 127.941818 -163.290858 
L 131.124706 -163.290858 
L 134.307594 -163.290858 
L 137.490481 -163.290858 
L 140.673369 -163.290858 
L 143.856257 -163.290858 
L 147.039144 -163.290858 
L 150.222032 -163.290858 
L 153.40492 -163.290858 
L 156.587807 -163.290858 
L 159.770695 -163.290858 
L 162.953583 -163.290858 
L 166.136471 -163.290858 
L 169.319358 -163.290858 
L 172.502246 -163.290858 
L 175.685134 -163.290858 
L 178.868021 -163.290858 
L 182.050909 -163.290858 
L 185.233797 -163.290858 
L 188.416684 -163.290858 
L 191.599572 -163.290858 
L 194.78246 -163.290858 
L 197.965348 -163.290858 
L 201.148235 -163.290858 
L 204.331123 -163.290858 
L 207.514011 -163.290858 
L 210.696898 -163.290858 
L 213.879786 -163.290858 
L 217.062674 -163.290858 
L 220.245561 -163.290858 
L 223.428449 -163.290858 
L 226.611337 -163.290858 
L 229.794225 -163.290858 
L 232.977112 -163.290858 
L 236.16 -163.290858 
L 239.342888 -163.290858 
L 242.525775 -163.290858 
L 245.708663 -163.290858 
L 248.891551 -163.290858 
L 252.074439 -163.290858 
L 255.257326 -163.290858 
L 258.440214 -163.290858 
L 261.623102 -163.290858 
L 264.805989 -163.290858 
L 267.988877 -163.290858 
L 271.171765 -163.290858 
L 274.354652 -163.290858 
L 277.53754 -163.290858 
L 280.720428 -163.290858 
L 283.903316 -163.290858 
L 287.086203 -163.290858 
L 290.269091 -163.290858 
L 293.451979 -163.290858 
L 296.634866 -163.290858 
L 299.817754 -163.290858 
L 303.000642 -163.290858 
L 306.183529 -163.290858 
L 309.366417 -163.290858 
L 312.549305 -163.290858 
L 315.732193 -163.290858 
L 318.91508 -163.290858 
L 322.097968 -163.290858 
L 325.280856 -163.290858 
L 328.463743 -163.290858 
L 331.646631 -163.290858 
L 334.829519 -163.290858 
L 338.012406 -163.290858 
L 341.195294 -163.290858 
L 344.378182 -163.290858 
L 347.56107 -163.290858 
L 350.743957 -163.290858 
L 353.926845 -163.290858 
L 357.109733 -163.290858 
L 360.29262 -163.290858 
L 363.475508 -163.290858 
L 366.658396 -163.290858 
L 369.841283 -163.290858 
L 373.024171 -163.290858 
L 376.207059 -163.290858 
L 379.389947 -163.290858 
L 382.572834 -163.290858 
L 385.755722 -163.290858 
L 388.93861 -163.290858 
L 392.121497 -163.290858 
L 395.304385 -163.290858 
L 398.487273 -163.290858 
L 398.487273 -207.688978 
L 398.487273 -207.688978 
L 395.304385 -207.688978 
L 392.121497 -207.688978 
L 388.93861 -207.688978 
L 385.755722 -207.688978 
L 382.572834 -207.688978 
L 379.389947 -207.688978 
L 376.207059 -207.688978 
L 373.024171 -207.688978 
L 369.841283 -207.688978 
L 366.658396 -207.688978 
L 363.475508 -207.688978 
L 360.29262 -207.688978 
L 357.109733 -207.688978 
L 353.926845 -207.688978 
L 350.743957 -207.688978 
L 347.56107 -207.688978 
L 344.378182 -207.688978 
L 341.195294 -207.688978 
L 338.012406 -207.688978 
L 334.829519 -207.688978 
L 331.646631 -207.688978 
L 328.463743 -207.688978 
L 325.280856 -207.688978 
L 322.097968 -207.688978 
L 318.91508 -207.688978 
L 315.732193 -207.688978 
L 312.549305 -207.688978 
L 309.366417 -207.688978 
L 306.183529 -207.688978 
L 303.000642 -207.688978 
L 299.817754 -207.688978 
L 296.634866 -207.688978 
L 293.451979 -207.688978 
L 290.269091 -207.688978 
L 287.086203 -207.688978 
L 283.903316 -207.688978 
L 280.720428 -207.688978 
L 277.53754 -207.688978 
L 274.354652 -207.688978 
L 271.171765 -207.688978 
L 267.988877 -207.688978 
L 264.805989 -207.688978 
L 261.623102 -207.688978 
L 258.440214 -207.688978 
L 255.257326 -207.688978 
L 252.074439 -207.688978 
L 248.891551 -207.688978 
L 245.708663 -207.688978 
L 242.525775 -207.688978 
L 239.342888 -207.688978 
L 236.16 -207.688978 
L 232.977112 -207.688978 
L 229.794225 -207.688978 
L 226.611337 -207.688978 
L 223.428449 -207.688978 
L 220.245561 -207.688978 
L 217.062674 -207.688978 
L 213.879786 -207.688978 
L 210.696898 -207.688978 
L 207.514011 -207.688978 
L 204.331123 -207.688978 
L 201.148235 -207.688978 
L 197.965348 -207.688978 
L 194.78246 -207.688978 
L 191.599572 -207.688978 
L 188.416684 -207.688978 
L 185.233797 -207.688978 
L 182.050909 -207.688978 
L 178.868021 -207.688978 
L 175.685134 -207.688978 
L 172.502246 -207.688978 
L 169.319358 -207.688978 
L 166.136471 -207.688978 
L 162.953583 -207.688978 
L 159.770695 -207.688978 
L 156.587807 -207.688978 
L 153.40492 -207.688978 
L 150.222032 -207.688978 
L 147.039144 -207.688978 
L 143.856257 -207.688978 
L 140.673369 -207.688978 
L 137.490481 -207.688978 
L 134.307594 -207.688978 
L 131.124706 -207.688978 
L 127.941818 -207.688978 
L 124.75893 -207.688978 
L 121.576043 -207.688978 
L 118.393155 -207.688978 
L 115.210267 -207.688978 
L 112.02738 -207.688978 
L 108.844492 -207.688978 
L 105.661604 -207.688978 
L 102.478717 -207.688978 
L 99.295829 -207.688978 
L 96.112941 -207.688978 
L 92.930053 -204.575637 
L 89.747166 -206.079272 
L 86.564278 -200.398402 
L 83.38139 -183.624303 
L 80.198503 -216.012144 
L 77.015615 -196.220926 
z
" style="stroke: #1f77b4; stroke-opacity: 0.2"/>
    </defs>
    <g clip-path="url(#p03a6e4967e)">
     <use xlink:href="#mc158376e4c" x="0" y="345.6" style="fill: #1f77b4; fill-opacity: 0.2; stroke: #1f77b4; stroke-opacity: 0.2"/>
    </g>
   </g>
   <g id="FillBetweenPolyCollection_2">
    <defs>
     <path id="ma7ea2175ce" d="M 73.832727 -160.877396 
L 73.832727 -105.969781 
L 80.198503 -50.112 
L 86.564278 -131.142477 
L 92.930053 -198.078885 
L 99.295829 -106.977199 
L 105.661604 -175.180938 
L 112.02738 -148.961699 
L 118.393155 -96.722337 
L 124.75893 -124.634882 
L 131.124706 -111.166203 
L 137.490481 -140.809036 
L 143.856257 -151.772729 
L 150.222032 -133.814485 
L 156.587807 -154.278167 
L 162.953583 -127.441633 
L 169.319358 -134.916231 
L 175.685134 -141.68024 
L 182.050909 -155.490401 
L 188.416684 -161.078601 
L 194.78246 -120.938446 
L 201.148235 -108.258001 
L 207.514011 -170.368052 
L 213.879786 -120.397946 
L 220.245561 -98.140528 
L 226.611337 -168.307901 
L 232.977112 -92.114509 
L 239.342888 -162.776707 
L 245.708663 -70.300118 
L 252.074439 -148.662243 
L 258.440214 -93.365986 
L 264.805989 -168.069134 
L 271.171765 -153.130556 
L 277.53754 -135.165335 
L 283.903316 -119.424607 
L 290.269091 -126.118259 
L 296.634866 -145.711256 
L 303.000642 -189.104206 
L 309.366417 -156.366474 
L 315.732193 -151.892281 
L 322.097968 -133.42099 
L 328.463743 -93.791333 
L 334.829519 -94.846349 
L 341.195294 -186.534394 
L 347.56107 -142.567218 
L 353.926845 -200.916026 
L 360.29262 -143.833508 
L 366.658396 -111.131995 
L 373.024171 -145.235641 
L 379.389947 -102.028769 
L 385.755722 -150.117047 
L 385.755722 -199.788323 
L 385.755722 -199.788323 
L 379.389947 -168.537432 
L 373.024171 -207.149078 
L 366.658396 -179.268999 
L 360.29262 -223.427305 
L 353.926845 -240.725258 
L 347.56107 -207.338152 
L 341.195294 -257.586239 
L 334.829519 -181.918225 
L 328.463743 -153.221052 
L 322.097968 -199.128937 
L 315.732193 -229.004952 
L 309.366417 -228.249782 
L 303.000642 -241.380006 
L 296.634866 -217.830533 
L 290.269091 -190.315899 
L 283.903316 -159.819316 
L 277.53754 -202.34329 
L 271.171765 -206.69221 
L 264.805989 -217.786797 
L 258.440214 -161.084447 
L 252.074439 -216.11922 
L 245.708663 -155.6378 
L 239.342888 -223.079223 
L 232.977112 -168.534296 
L 226.611337 -226.225751 
L 220.245561 -156.309905 
L 213.879786 -191.077514 
L 207.514011 -230.363973 
L 201.148235 -187.10169 
L 194.78246 -173.181571 
L 188.416684 -216.099608 
L 182.050909 -200.613342 
L 175.685134 -206.985455 
L 169.319358 -214.989139 
L 162.953583 -184.033827 
L 156.587807 -183.230458 
L 150.222032 -195.016418 
L 143.856257 -200.611989 
L 137.490481 -183.063169 
L 131.124706 -195.350559 
L 124.75893 -195.5183 
L 118.393155 -155.248746 
L 112.02738 -220.778463 
L 105.661604 -254.0636 
L 99.295829 -136.316163 
L 92.930053 -248.521097 
L 86.564278 -207.605822 
L 80.198503 -107.643821 
L 73.832727 -160.877396 
z
" style="stroke: #ff7f0e; stroke-opacity: 0.2"/>
    </defs>
    <g clip-path="url(#p03a6e4967e)">
     <use xlink:href="#ma7ea2175ce" x="0" y="345.6" style="fill: #ff7f0e; fill-opacity: 0.2; stroke: #ff7f0e; stroke-opacity: 0.2"/>
    </g>
   </g>
   <g id="FillBetweenPolyCollection_3">
    <defs>
     <path id="m8a96a5ed0d" d="M 73.832727 -201.619188 
L 73.832727 -138.368786 
L 80.198503 -171.901115 
L 86.564278 -187.431685 
L 92.930053 -142.710608 
L 99.295829 -198.563961 
L 105.661604 -166.781274 
L 112.02738 -126.374872 
L 118.393155 -144.20478 
L 124.75893 -144.680983 
L 131.124706 -160.647998 
L 137.490481 -192.1793 
L 143.856257 -161.353787 
L 150.222032 -121.790414 
L 156.587807 -121.33765 
L 162.953583 -148.390959 
L 169.319358 -160.032113 
L 175.685134 -169.444507 
L 182.050909 -177.08661 
L 188.416684 -178.082882 
L 194.78246 -182.351288 
L 201.148235 -137.382316 
L 207.514011 -137.467924 
L 213.879786 -124.222459 
L 220.245561 -105.440933 
L 226.611337 -77.338731 
L 232.977112 -83.95637 
L 239.342888 -202.191857 
L 245.708663 -134.152688 
L 252.074439 -172.566596 
L 258.440214 -152.270306 
L 264.805989 -180.31731 
L 271.171765 -128.184795 
L 277.53754 -133.371291 
L 283.903316 -136.184828 
L 290.269091 -158.698867 
L 296.634866 -103.747999 
L 303.000642 -192.746317 
L 309.366417 -133.532724 
L 315.732193 -136.117794 
L 322.097968 -151.408341 
L 328.463743 -141.656827 
L 334.829519 -206.634311 
L 341.195294 -170.815159 
L 347.56107 -157.501363 
L 353.926845 -71.012194 
L 360.29262 -128.698021 
L 366.658396 -109.180454 
L 373.024171 -139.532319 
L 379.389947 -136.230789 
L 385.755722 -135.902938 
L 385.755722 -212.762757 
L 385.755722 -212.762757 
L 379.389947 -196.319137 
L 373.024171 -221.530122 
L 366.658396 -171.303143 
L 360.29262 -191.455161 
L 353.926845 -130.132235 
L 347.56107 -222.156195 
L 341.195294 -227.437517 
L 334.829519 -292.032 
L 328.463743 -218.165939 
L 322.097968 -200.976378 
L 315.732193 -213.787576 
L 309.366417 -186.620457 
L 303.000642 -266.250409 
L 296.634866 -181.694296 
L 290.269091 -235.834785 
L 283.903316 -201.323796 
L 277.53754 -195.459612 
L 271.171765 -185.770014 
L 264.805989 -256.365276 
L 258.440214 -206.312785 
L 252.074439 -248.000221 
L 245.708663 -221.951054 
L 239.342888 -259.284219 
L 232.977112 -120.907082 
L 226.611337 -180.830725 
L 220.245561 -163.885593 
L 213.879786 -197.170397 
L 207.514011 -207.478748 
L 201.148235 -221.200775 
L 194.78246 -233.256831 
L 188.416684 -227.60784 
L 182.050909 -265.794348 
L 175.685134 -230.047843 
L 169.319358 -270.452099 
L 162.953583 -236.225297 
L 156.587807 -181.460089 
L 150.222032 -203.321465 
L 143.856257 -217.064097 
L 137.490481 -246.982635 
L 131.124706 -227.687281 
L 124.75893 -212.662434 
L 118.393155 -208.179939 
L 112.02738 -176.422866 
L 105.661604 -245.107821 
L 99.295829 -246.796346 
L 92.930053 -203.475738 
L 86.564278 -235.614481 
L 80.198503 -239.98798 
L 73.832727 -201.619188 
z
" style="stroke: #2ca02c; stroke-opacity: 0.2"/>
    </defs>
    <g clip-path="url(#p03a6e4967e)">
     <use xlink:href="#m8a96a5ed0d" x="0" y="345.6" style="fill: #2ca02c; fill-opacity: 0.2; stroke: #2ca02c; stroke-opacity: 0.2"/>
    </g>
   </g>
   <g id="matplotlib.axis_1">
    <g id="xtick_1">
     <g id="line2d_1">
      <defs>
       <path id="m70dc01f4b2" d="M 0 0 
L 0 3.5 
" style="stroke: #000000; stroke-width: 0.8"/>
      </defs>
      <g>
       <use xlink:href="#m70dc01f4b2" x="73.832727" y="307.584" style="stroke: #000000; stroke-width: 0.8"/>
      </g>
     </g>
     <g id="text_1">
      <!-- 0 -->
      <g transform="translate(70.651477 322.182437) scale(0.1 -0.1)">
       <defs>
        <path id="DejaVuSans-30" d="M 2034 4250 
Q 1547 4250 1301 3770 
Q 1056 3291 1056 2328 
Q 1056 1369 1301 889 
Q 1547 409 2034 409 
Q 2525 409 2770 889 
Q 3016 1369 3016 2328 
Q 3016 3291 2770 3770 
Q 2525 4250 2034 4250 
z
M 2034 4750 
Q 2819 4750 3233 4129 
Q 3647 3509 3647 2328 
Q 3647 1150 3233 529 
Q 2819 -91 2034 -91 
Q 1250 -91 836 529 
Q 422 1150 422 2328 
Q 422 3509 836 4129 
Q 1250 4750 2034 4750 
z
" transform="scale(0.015625)"/>
       </defs>
       <use xlink:href="#DejaVuSans-30"/>
      </g>
     </g>
    </g>
    <g id="xtick_2">
     <g id="line2d_2">
      <g>
       <use xlink:href="#m70dc01f4b2" x="137.490481" y="307.584" style="stroke: #000000; stroke-width: 0.8"/>
      </g>
     </g>
     <g id="text_2">
      <!-- 2000 -->
      <g transform="translate(124.765481 322.182437) scale(0.1 -0.1)">
       <defs>
        <path id="DejaVuSans-32" d="M 1228 531 
L 3431 531 
L 3431 0 
L 469 0 
L 469 531 
Q 828 903 1448 1529 
Q 2069 2156 2228 2338 
Q 2531 2678 2651 2914 
Q 2772 3150 2772 3378 
Q 2772 3750 2511 3984 
Q 2250 4219 1831 4219 
Q 1534 4219 1204 4116 
Q 875 4013 500 3803 
L 500 4441 
Q 881 4594 1212 4672 
Q 1544 4750 1819 4750 
Q 2544 4750 2975 4387 
Q 3406 4025 3406 3419 
Q 3406 3131 3298 2873 
Q 3191 2616 2906 2266 
Q 2828 2175 2409 1742 
Q 1991 1309 1228 531 
z
" transform="scale(0.015625)"/>
       </defs>
       <use xlink:href="#DejaVuSans-32"/>
       <use xlink:href="#DejaVuSans-30" transform="translate(63.623047 0)"/>
       <use xlink:href="#DejaVuSans-30" transform="translate(127.246094 0)"/>
       <use xlink:href="#DejaVuSans-30" transform="translate(190.869141 0)"/>
      </g>
     </g>
    </g>
    <g id="xtick_3">
     <g id="line2d_3">
      <g>
       <use xlink:href="#m70dc01f4b2" x="201.148235" y="307.584" style="stroke: #000000; stroke-width: 0.8"/>
      </g>
     </g>
     <g id="text_3">
      <!-- 4000 -->
      <g transform="translate(188.423235 322.182437) scale(0.1 -0.1)">
       <defs>
        <path id="DejaVuSans-34" d="M 2419 4116 
L 825 1625 
L 2419 1625 
L 2419 4116 
z
M 2253 4666 
L 3047 4666 
L 3047 1625 
L 3713 1625 
L 3713 1100 
L 3047 1100 
L 3047 0 
L 2419 0 
L 2419 1100 
L 313 1100 
L 313 1709 
L 2253 4666 
z
" transform="scale(0.015625)"/>
       </defs>
       <use xlink:href="#DejaVuSans-34"/>
       <use xlink:href="#DejaVuSans-30" transform="translate(63.623047 0)"/>
       <use xlink:href="#DejaVuSans-30" transform="translate(127.246094 0)"/>
       <use xlink:href="#DejaVuSans-30" transform="translate(190.869141 0)"/>
      </g>
     </g>
    </g>
    <g id="xtick_4">
     <g id="line2d_4">
      <g>
       <use xlink:href="#m70dc01f4b2" x="264.805989" y="307.584" style="stroke: #000000; stroke-width: 0.8"/>
      </g>
     </g>
     <g id="text_4">
      <!-- 6000 -->
      <g transform="translate(252.080989 322.182437) scale(0.1 -0.1)">
       <defs>
        <path id="DejaVuSans-36" d="M 2113 2584 
Q 1688 2584 1439 2293 
Q 1191 2003 1191 1497 
Q 1191 994 1439 701 
Q 1688 409 2113 409 
Q 2538 409 2786 701 
Q 3034 994 3034 1497 
Q 3034 2003 2786 2293 
Q 2538 2584 2113 2584 
z
M 3366 4563 
L 3366 3988 
Q 3128 4100 2886 4159 
Q 2644 4219 2406 4219 
Q 1781 4219 1451 3797 
Q 1122 3375 1075 2522 
Q 1259 2794 1537 2939 
Q 1816 3084 2150 3084 
Q 2853 3084 3261 2657 
Q 3669 2231 3669 1497 
Q 3669 778 3244 343 
Q 2819 -91 2113 -91 
Q 1303 -91 875 529 
Q 447 1150 447 2328 
Q 447 3434 972 4092 
Q 1497 4750 2381 4750 
Q 2619 4750 2861 4703 
Q 3103 4656 3366 4563 
z
" transform="scale(0.015625)"/>
       </defs>
       <use xlink:href="#DejaVuSans-36"/>
       <use xlink:href="#DejaVuSans-30" transform="translate(63.623047 0)"/>
       <use xlink:href="#DejaVuSans-30" transform="translate(127.246094 0)"/>
       <use xlink:href="#DejaVuSans-30" transform="translate(190.869141 0)"/>
      </g>
     </g>
    </g>
    <g id="xtick_5">
     <g id="line2d_5">
      <g>
       <use xlink:href="#m70dc01f4b2" x="328.463743" y="307.584" style="stroke: #000000; stroke-width: 0.8"/>
      </g>
     </g>
     <g id="text_5">
      <!-- 8000 -->
      <g transform="translate(315.738743 322.182437) scale(0.1 -0.1)">
       <defs>
        <path id="DejaVuSans-38" d="M 2034 2216 
Q 1584 2216 1326 1975 
Q 1069 1734 1069 1313 
Q 1069 891 1326 650 
Q 1584 409 2034 409 
Q 2484 409 2743 651 
Q 3003 894 3003 1313 
Q 3003 1734 2745 1975 
Q 2488 2216 2034 2216 
z
M 1403 2484 
Q 997 2584 770 2862 
Q 544 3141 544 3541 
Q 544 4100 942 4425 
Q 1341 4750 2034 4750 
Q 2731 4750 3128 4425 
Q 3525 4100 3525 3541 
Q 3525 3141 3298 2862 
Q 3072 2584 2669 2484 
Q 3125 2378 3379 2068 
Q 3634 1759 3634 1313 
Q 3634 634 3220 271 
Q 2806 -91 2034 -91 
Q 1263 -91 848 271 
Q 434 634 434 1313 
Q 434 1759 690 2068 
Q 947 2378 1403 2484 
z
M 1172 3481 
Q 1172 3119 1398 2916 
Q 1625 2713 2034 2713 
Q 2441 2713 2670 2916 
Q 2900 3119 2900 3481 
Q 2900 3844 2670 4047 
Q 2441 4250 2034 4250 
Q 1625 4250 1398 4047 
Q 1172 3844 1172 3481 
z
" transform="scale(0.015625)"/>
       </defs>
       <use xlink:href="#DejaVuSans-38"/>
       <use xlink:href="#DejaVuSans-30" transform="translate(63.623047 0)"/>
       <use xlink:href="#DejaVuSans-30" transform="translate(127.246094 0)"/>
       <use xlink:href="#DejaVuSans-30" transform="translate(190.869141 0)"/>
      </g>
     </g>
    </g>
    <g id="xtick_6">
     <g id="line2d_6">
      <g>
       <use xlink:href="#m70dc01f4b2" x="392.121497" y="307.584" style="stroke: #000000; stroke-width: 0.8"/>
      </g>
     </g>
     <g id="text_6">
      <!-- 10000 -->
      <g transform="translate(376.215247 322.182437) scale(0.1 -0.1)">
       <defs>
        <path id="DejaVuSans-31" d="M 794 531 
L 1825 531 
L 1825 4091 
L 703 3866 
L 703 4441 
L 1819 4666 
L 2450 4666 
L 2450 531 
L 3481 531 
L 3481 0 
L 794 0 
L 794 531 
z
" transform="scale(0.015625)"/>
       </defs>
       <use xlink:href="#DejaVuSans-31"/>
       <use xlink:href="#DejaVuSans-30" transform="translate(63.623047 0)"/>
       <use xlink:href="#DejaVuSans-30" transform="translate(127.246094 0)"/>
       <use xlink:href="#DejaVuSans-30" transform="translate(190.869141 0)"/>
       <use xlink:href="#DejaVuSans-30" transform="translate(254.492188 0)"/>
      </g>
     </g>
    </g>
    <g id="text_7">
     <!-- Episode -->
     <g transform="translate(216.5225 335.860562) scale(0.1 -0.1)">
      <defs>
       <path id="DejaVuSans-45" d="M 628 4666 
L 3578 4666 
L 3578 4134 
L 1259 4134 
L 1259 2753 
L 3481 2753 
L 3481 2222 
L 1259 2222 
L 1259 531 
L 3634 531 
L 3634 0 
L 628 0 
L 628 4666 
z
" transform="scale(0.015625)"/>
       <path id="DejaVuSans-70" d="M 1159 525 
L 1159 -1331 
L 581 -1331 
L 581 3500 
L 1159 3500 
L 1159 2969 
Q 1341 3281 1617 3432 
Q 1894 3584 2278 3584 
Q 2916 3584 3314 3078 
Q 3713 2572 3713 1747 
Q 3713 922 3314 415 
Q 2916 -91 2278 -91 
Q 1894 -91 1617 61 
Q 1341 213 1159 525 
z
M 3116 1747 
Q 3116 2381 2855 2742 
Q 2594 3103 2138 3103 
Q 1681 3103 1420 2742 
Q 1159 2381 1159 1747 
Q 1159 1113 1420 752 
Q 1681 391 2138 391 
Q 2594 391 2855 752 
Q 3116 1113 3116 1747 
z
" transform="scale(0.015625)"/>
       <path id="DejaVuSans-69" d="M 603 3500 
L 1178 3500 
L 1178 0 
L 603 0 
L 603 3500 
z
M 603 4863 
L 1178 4863 
L 1178 4134 
L 603 4134 
L 603 4863 
z
" transform="scale(0.015625)"/>
       <path id="DejaVuSans-73" d="M 2834 3397 
L 2834 2853 
Q 2591 2978 2328 3040 
Q 2066 3103 1784 3103 
Q 1356 3103 1142 2972 
Q 928 2841 928 2578 
Q 928 2378 1081 2264 
Q 1234 2150 1697 2047 
L 1894 2003 
Q 2506 1872 2764 1633 
Q 3022 1394 3022 966 
Q 3022 478 2636 193 
Q 2250 -91 1575 -91 
Q 1294 -91 989 -36 
Q 684 19 347 128 
L 347 722 
Q 666 556 975 473 
Q 1284 391 1588 391 
Q 1994 391 2212 530 
Q 2431 669 2431 922 
Q 2431 1156 2273 1281 
Q 2116 1406 1581 1522 
L 1381 1569 
Q 847 1681 609 1914 
Q 372 2147 372 2553 
Q 372 3047 722 3315 
Q 1072 3584 1716 3584 
Q 2034 3584 2315 3537 
Q 2597 3491 2834 3397 
z
" transform="scale(0.015625)"/>
       <path id="DejaVuSans-6f" d="M 1959 3097 
Q 1497 3097 1228 2736 
Q 959 2375 959 1747 
Q 959 1119 1226 758 
Q 1494 397 1959 397 
Q 2419 397 2687 759 
Q 2956 1122 2956 1747 
Q 2956 2369 2687 2733 
Q 2419 3097 1959 3097 
z
M 1959 3584 
Q 2709 3584 3137 3096 
Q 3566 2609 3566 1747 
Q 3566 888 3137 398 
Q 2709 -91 1959 -91 
Q 1206 -91 779 398 
Q 353 888 353 1747 
Q 353 2609 779 3096 
Q 1206 3584 1959 3584 
z
" transform="scale(0.015625)"/>
       <path id="DejaVuSans-64" d="M 2906 2969 
L 2906 4863 
L 3481 4863 
L 3481 0 
L 2906 0 
L 2906 525 
Q 2725 213 2448 61 
Q 2172 -91 1784 -91 
Q 1150 -91 751 415 
Q 353 922 353 1747 
Q 353 2572 751 3078 
Q 1150 3584 1784 3584 
Q 2172 3584 2448 3432 
Q 2725 3281 2906 2969 
z
M 947 1747 
Q 947 1113 1208 752 
Q 1469 391 1925 391 
Q 2381 391 2643 752 
Q 2906 1113 2906 1747 
Q 2906 2381 2643 2742 
Q 2381 3103 1925 3103 
Q 1469 3103 1208 2742 
Q 947 2381 947 1747 
z
" transform="scale(0.015625)"/>
       <path id="DejaVuSans-65" d="M 3597 1894 
L 3597 1613 
L 953 1613 
Q 991 1019 1311 708 
Q 1631 397 2203 397 
Q 2534 397 2845 478 
Q 3156 559 3463 722 
L 3463 178 
Q 3153 47 2828 -22 
Q 2503 -91 2169 -91 
Q 1331 -91 842 396 
Q 353 884 353 1716 
Q 353 2575 817 3079 
Q 1281 3584 2069 3584 
Q 2775 3584 3186 3129 
Q 3597 2675 3597 1894 
z
M 3022 2063 
Q 3016 2534 2758 2815 
Q 2500 3097 2075 3097 
Q 1594 3097 1305 2825 
Q 1016 2553 972 2059 
L 3022 2063 
z
" transform="scale(0.015625)"/>
      </defs>
      <use xlink:href="#DejaVuSans-45"/>
      <use xlink:href="#DejaVuSans-70" transform="translate(63.183594 0)"/>
      <use xlink:href="#DejaVuSans-69" transform="translate(126.660156 0)"/>
      <use xlink:href="#DejaVuSans-73" transform="translate(154.443359 0)"/>
      <use xlink:href="#DejaVuSans-6f" transform="translate(206.542969 0)"/>
      <use xlink:href="#DejaVuSans-64" transform="translate(267.724609 0)"/>
      <use xlink:href="#DejaVuSans-65" transform="translate(331.201172 0)"/>
     </g>
    </g>
   </g>
   <g id="matplotlib.axis_2">
    <g id="ytick_1">
     <g id="line2d_7">
      <defs>
       <path id="m1dc5531adb" d="M 0 0 
L -3.5 0 
" style="stroke: #000000; stroke-width: 0.8"/>
      </defs>
      <g>
       <use xlink:href="#m1dc5531adb" x="57.6" y="287.796556" style="stroke: #000000; stroke-width: 0.8"/>
      </g>
     </g>
     <g id="text_8">
      <!-- −0.03 -->
      <g transform="translate(19.954687 291.595775) scale(0.1 -0.1)">
       <defs>
        <path id="DejaVuSans-2212" d="M 678 2272 
L 4684 2272 
L 4684 1741 
L 678 1741 
L 678 2272 
z
" transform="scale(0.015625)"/>
        <path id="DejaVuSans-2e" d="M 684 794 
L 1344 794 
L 1344 0 
L 684 0 
L 684 794 
z
" transform="scale(0.015625)"/>
        <path id="DejaVuSans-33" d="M 2597 2516 
Q 3050 2419 3304 2112 
Q 3559 1806 3559 1356 
Q 3559 666 3084 287 
Q 2609 -91 1734 -91 
Q 1441 -91 1130 -33 
Q 819 25 488 141 
L 488 750 
Q 750 597 1062 519 
Q 1375 441 1716 441 
Q 2309 441 2620 675 
Q 2931 909 2931 1356 
Q 2931 1769 2642 2001 
Q 2353 2234 1838 2234 
L 1294 2234 
L 1294 2753 
L 1863 2753 
Q 2328 2753 2575 2939 
Q 2822 3125 2822 3475 
Q 2822 3834 2567 4026 
Q 2313 4219 1838 4219 
Q 1578 4219 1281 4162 
Q 984 4106 628 3988 
L 628 4550 
Q 988 4650 1302 4700 
Q 1616 4750 1894 4750 
Q 2613 4750 3031 4423 
Q 3450 4097 3450 3541 
Q 3450 3153 3228 2886 
Q 3006 2619 2597 2516 
z
" transform="scale(0.015625)"/>
       </defs>
       <use xlink:href="#DejaVuSans-2212"/>
       <use xlink:href="#DejaVuSans-30" transform="translate(83.789062 0)"/>
       <use xlink:href="#DejaVuSans-2e" transform="translate(147.412109 0)"/>
       <use xlink:href="#DejaVuSans-30" transform="translate(179.199219 0)"/>
       <use xlink:href="#DejaVuSans-33" transform="translate(242.822266 0)"/>
      </g>
     </g>
    </g>
    <g id="ytick_2">
     <g id="line2d_8">
      <g>
       <use xlink:href="#m1dc5531adb" x="57.6" y="256.804694" style="stroke: #000000; stroke-width: 0.8"/>
      </g>
     </g>
     <g id="text_9">
      <!-- −0.02 -->
      <g transform="translate(19.954687 260.603912) scale(0.1 -0.1)">
       <use xlink:href="#DejaVuSans-2212"/>
       <use xlink:href="#DejaVuSans-30" transform="translate(83.789062 0)"/>
       <use xlink:href="#DejaVuSans-2e" transform="translate(147.412109 0)"/>
       <use xlink:href="#DejaVuSans-30" transform="translate(179.199219 0)"/>
       <use xlink:href="#DejaVuSans-32" transform="translate(242.822266 0)"/>
      </g>
     </g>
    </g>
    <g id="ytick_3">
     <g id="line2d_9">
      <g>
       <use xlink:href="#m1dc5531adb" x="57.6" y="225.812831" style="stroke: #000000; stroke-width: 0.8"/>
      </g>
     </g>
     <g id="text_10">
      <!-- −0.01 -->
      <g transform="translate(19.954687 229.61205) scale(0.1 -0.1)">
       <use xlink:href="#DejaVuSans-2212"/>
       <use xlink:href="#DejaVuSans-30" transform="translate(83.789062 0)"/>
       <use xlink:href="#DejaVuSans-2e" transform="translate(147.412109 0)"/>
       <use xlink:href="#DejaVuSans-30" transform="translate(179.199219 0)"/>
       <use xlink:href="#DejaVuSans-31" transform="translate(242.822266 0)"/>
      </g>
     </g>
    </g>
    <g id="ytick_4">
     <g id="line2d_10">
      <g>
       <use xlink:href="#m1dc5531adb" x="57.6" y="194.820968" style="stroke: #000000; stroke-width: 0.8"/>
      </g>
     </g>
     <g id="text_11">
      <!-- 0.00 -->
      <g transform="translate(28.334375 198.620187) scale(0.1 -0.1)">
       <use xlink:href="#DejaVuSans-30"/>
       <use xlink:href="#DejaVuSans-2e" transform="translate(63.623047 0)"/>
       <use xlink:href="#DejaVuSans-30" transform="translate(95.410156 0)"/>
       <use xlink:href="#DejaVuSans-30" transform="translate(159.033203 0)"/>
      </g>
     </g>
    </g>
    <g id="ytick_5">
     <g id="line2d_11">
      <g>
       <use xlink:href="#m1dc5531adb" x="57.6" y="163.829105" style="stroke: #000000; stroke-width: 0.8"/>
      </g>
     </g>
     <g id="text_12">
      <!-- 0.01 -->
      <g transform="translate(28.334375 167.628324) scale(0.1 -0.1)">
       <use xlink:href="#DejaVuSans-30"/>
       <use xlink:href="#DejaVuSans-2e" transform="translate(63.623047 0)"/>
       <use xlink:href="#DejaVuSans-30" transform="translate(95.410156 0)"/>
       <use xlink:href="#DejaVuSans-31" transform="translate(159.033203 0)"/>
      </g>
     </g>
    </g>
    <g id="ytick_6">
     <g id="line2d_12">
      <g>
       <use xlink:href="#m1dc5531adb" x="57.6" y="132.837243" style="stroke: #000000; stroke-width: 0.8"/>
      </g>
     </g>
     <g id="text_13">
      <!-- 0.02 -->
      <g transform="translate(28.334375 136.636461) scale(0.1 -0.1)">
       <use xlink:href="#DejaVuSans-30"/>
       <use xlink:href="#DejaVuSans-2e" transform="translate(63.623047 0)"/>
       <use xlink:href="#DejaVuSans-30" transform="translate(95.410156 0)"/>
       <use xlink:href="#DejaVuSans-32" transform="translate(159.033203 0)"/>
      </g>
     </g>
    </g>
    <g id="ytick_7">
     <g id="line2d_13">
      <g>
       <use xlink:href="#m1dc5531adb" x="57.6" y="101.84538" style="stroke: #000000; stroke-width: 0.8"/>
      </g>
     </g>
     <g id="text_14">
      <!-- 0.03 -->
      <g transform="translate(28.334375 105.644599) scale(0.1 -0.1)">
       <use xlink:href="#DejaVuSans-30"/>
       <use xlink:href="#DejaVuSans-2e" transform="translate(63.623047 0)"/>
       <use xlink:href="#DejaVuSans-30" transform="translate(95.410156 0)"/>
       <use xlink:href="#DejaVuSans-33" transform="translate(159.033203 0)"/>
      </g>
     </g>
    </g>
    <g id="ytick_8">
     <g id="line2d_14">
      <g>
       <use xlink:href="#m1dc5531adb" x="57.6" y="70.853517" style="stroke: #000000; stroke-width: 0.8"/>
      </g>
     </g>
     <g id="text_15">
      <!-- 0.04 -->
      <g transform="translate(28.334375 74.652736) scale(0.1 -0.1)">
       <use xlink:href="#DejaVuSans-30"/>
       <use xlink:href="#DejaVuSans-2e" transform="translate(63.623047 0)"/>
       <use xlink:href="#DejaVuSans-30" transform="translate(95.410156 0)"/>
       <use xlink:href="#DejaVuSans-34" transform="translate(159.033203 0)"/>
      </g>
     </g>
    </g>
    <g id="text_16">
     <!-- Reward -->
     <g transform="translate(13.875 193.149094) rotate(-90) scale(0.1 -0.1)">
      <defs>
       <path id="DejaVuSans-52" d="M 2841 2188 
Q 3044 2119 3236 1894 
Q 3428 1669 3622 1275 
L 4263 0 
L 3584 0 
L 2988 1197 
Q 2756 1666 2539 1819 
Q 2322 1972 1947 1972 
L 1259 1972 
L 1259 0 
L 628 0 
L 628 4666 
L 2053 4666 
Q 2853 4666 3247 4331 
Q 3641 3997 3641 3322 
Q 3641 2881 3436 2590 
Q 3231 2300 2841 2188 
z
M 1259 4147 
L 1259 2491 
L 2053 2491 
Q 2509 2491 2742 2702 
Q 2975 2913 2975 3322 
Q 2975 3731 2742 3939 
Q 2509 4147 2053 4147 
L 1259 4147 
z
" transform="scale(0.015625)"/>
       <path id="DejaVuSans-77" d="M 269 3500 
L 844 3500 
L 1563 769 
L 2278 3500 
L 2956 3500 
L 3675 769 
L 4391 3500 
L 4966 3500 
L 4050 0 
L 3372 0 
L 2619 2869 
L 1863 0 
L 1184 0 
L 269 3500 
z
" transform="scale(0.015625)"/>
       <path id="DejaVuSans-61" d="M 2194 1759 
Q 1497 1759 1228 1600 
Q 959 1441 959 1056 
Q 959 750 1161 570 
Q 1363 391 1709 391 
Q 2188 391 2477 730 
Q 2766 1069 2766 1631 
L 2766 1759 
L 2194 1759 
z
M 3341 1997 
L 3341 0 
L 2766 0 
L 2766 531 
Q 2569 213 2275 61 
Q 1981 -91 1556 -91 
Q 1019 -91 701 211 
Q 384 513 384 1019 
Q 384 1609 779 1909 
Q 1175 2209 1959 2209 
L 2766 2209 
L 2766 2266 
Q 2766 2663 2505 2880 
Q 2244 3097 1772 3097 
Q 1472 3097 1187 3025 
Q 903 2953 641 2809 
L 641 3341 
Q 956 3463 1253 3523 
Q 1550 3584 1831 3584 
Q 2591 3584 2966 3190 
Q 3341 2797 3341 1997 
z
" transform="scale(0.015625)"/>
       <path id="DejaVuSans-72" d="M 2631 2963 
Q 2534 3019 2420 3045 
Q 2306 3072 2169 3072 
Q 1681 3072 1420 2755 
Q 1159 2438 1159 1844 
L 1159 0 
L 581 0 
L 581 3500 
L 1159 3500 
L 1159 2956 
Q 1341 3275 1631 3429 
Q 1922 3584 2338 3584 
Q 2397 3584 2469 3576 
Q 2541 3569 2628 3553 
L 2631 2963 
z
" transform="scale(0.015625)"/>
      </defs>
      <use xlink:href="#DejaVuSans-52"/>
      <use xlink:href="#DejaVuSans-65" transform="translate(64.982422 0)"/>
      <use xlink:href="#DejaVuSans-77" transform="translate(126.505859 0)"/>
      <use xlink:href="#DejaVuSans-61" transform="translate(208.292969 0)"/>
      <use xlink:href="#DejaVuSans-72" transform="translate(269.572266 0)"/>
      <use xlink:href="#DejaVuSans-64" transform="translate(308.935547 0)"/>
     </g>
    </g>
   </g>
   <g id="line2d_15">
    <path d="M 77.015615 165.998536 
L 80.198503 154.531547 
L 83.38139 186.453165 
L 86.564278 171.577071 
L 89.747166 170.957234 
L 92.930053 170.027478 
L 96.112941 160.110082 
L 99.295829 160.110082 
L 102.478717 160.110082 
L 105.661604 160.110082 
L 108.844492 160.110082 
L 112.02738 160.110082 
L 115.210267 160.110082 
L 118.393155 160.110082 
L 121.576043 160.110082 
L 124.75893 160.110082 
L 127.941818 160.110082 
L 131.124706 160.110082 
L 134.307594 160.110082 
L 137.490481 160.110082 
L 140.673369 160.110082 
L 143.856257 160.110082 
L 147.039144 160.110082 
L 150.222032 160.110082 
L 153.40492 160.110082 
L 156.587807 160.110082 
L 159.770695 160.110082 
L 162.953583 160.110082 
L 166.136471 160.110082 
L 169.319358 160.110082 
L 172.502246 160.110082 
L 175.685134 160.110082 
L 178.868021 160.110082 
L 182.050909 160.110082 
L 185.233797 160.110082 
L 188.416684 160.110082 
L 191.599572 160.110082 
L 194.78246 160.110082 
L 197.965348 160.110082 
L 201.148235 160.110082 
L 204.331123 160.110082 
L 207.514011 160.110082 
L 210.696898 160.110082 
L 213.879786 160.110082 
L 217.062674 160.110082 
L 220.245561 160.110082 
L 223.428449 160.110082 
L 226.611337 160.110082 
L 229.794225 160.110082 
L 232.977112 160.110082 
L 236.16 160.110082 
L 239.342888 160.110082 
L 242.525775 160.110082 
L 245.708663 160.110082 
L 248.891551 160.110082 
L 252.074439 160.110082 
L 255.257326 160.110082 
L 258.440214 160.110082 
L 261.623102 160.110082 
L 264.805989 160.110082 
L 267.988877 160.110082 
L 271.171765 160.110082 
L 274.354652 160.110082 
L 277.53754 160.110082 
L 280.720428 160.110082 
L 283.903316 160.110082 
L 287.086203 160.110082 
L 290.269091 160.110082 
L 293.451979 160.110082 
L 296.634866 160.110082 
L 299.817754 160.110082 
L 303.000642 160.110082 
L 306.183529 160.110082 
L 309.366417 160.110082 
L 312.549305 160.110082 
L 315.732193 160.110082 
L 318.91508 160.110082 
L 322.097968 160.110082 
L 325.280856 160.110082 
L 328.463743 160.110082 
L 331.646631 160.110082 
L 334.829519 160.110082 
L 338.012406 160.110082 
L 341.195294 160.110082 
L 344.378182 160.110082 
L 347.56107 160.110082 
L 350.743957 160.110082 
L 353.926845 160.110082 
L 357.109733 160.110082 
L 360.29262 160.110082 
L 363.475508 160.110082 
L 366.658396 160.110082 
L 369.841283 160.110082 
L 373.024171 160.110082 
L 376.207059 160.110082 
L 379.389947 160.110082 
L 382.572834 160.110082 
L 385.755722 160.110082 
L 388.93861 160.110082 
L 392.121497 160.110082 
L 395.304385 160.110082 
L 398.487273 160.110082 
" clip-path="url(#p03a6e4967e)" style="fill: none; stroke: #1f77b4; stroke-width: 1.5; stroke-linecap: square"/>
   </g>
   <g id="line2d_16">
    <path d="M 73.832727 212.176411 
L 80.198503 266.72209 
L 86.564278 176.22585 
L 92.930053 122.300009 
L 99.295829 223.953319 
L 105.661604 130.977731 
L 112.02738 160.729919 
L 118.393155 219.614458 
L 124.75893 185.523409 
L 131.124706 192.341619 
L 137.490481 183.663898 
L 143.856257 169.407641 
L 150.222032 181.184548 
L 156.587807 176.845688 
L 162.953583 189.86227 
L 169.319358 170.647315 
L 175.685134 171.267152 
L 182.050909 167.548129 
L 188.416684 157.010896 
L 194.78246 198.539992 
L 201.148235 197.920154 
L 207.514011 145.233988 
L 213.879786 189.86227 
L 220.245561 218.374784 
L 226.611337 148.333174 
L 232.977112 215.275598 
L 239.342888 152.672035 
L 245.708663 232.631041 
L 252.074439 163.209268 
L 258.440214 218.374784 
L 264.805989 152.672035 
L 271.171765 165.688617 
L 277.53754 176.845688 
L 283.903316 205.978039 
L 290.269091 187.382921 
L 296.634866 163.829105 
L 303.000642 130.357894 
L 309.366417 153.291872 
L 315.732193 155.151384 
L 322.097968 179.325037 
L 328.463743 222.093807 
L 334.829519 207.217713 
L 341.195294 123.539684 
L 347.56107 170.647315 
L 353.926845 124.779358 
L 360.29262 161.969594 
L 366.658396 200.399503 
L 373.024171 169.407641 
L 379.389947 210.316899 
L 385.755722 170.647315 
" clip-path="url(#p03a6e4967e)" style="fill: none; stroke: #ff7f0e; stroke-width: 1.5; stroke-linecap: square"/>
   </g>
   <g id="line2d_17">
    <path d="M 73.832727 175.606013 
L 80.198503 139.655452 
L 86.564278 134.076917 
L 92.930053 172.506827 
L 99.295829 122.919846 
L 105.661604 139.655452 
L 112.02738 194.201131 
L 118.393155 169.407641 
L 124.75893 166.928292 
L 131.124706 151.43236 
L 137.490481 126.019033 
L 143.856257 156.391058 
L 150.222032 183.04406 
L 156.587807 194.201131 
L 162.953583 153.291872 
L 169.319358 130.357894 
L 175.685134 145.853825 
L 182.050909 124.159521 
L 188.416684 142.754639 
L 194.78246 137.795941 
L 201.148235 166.308454 
L 207.514011 173.126664 
L 213.879786 184.903572 
L 220.245561 210.936737 
L 226.611337 216.515272 
L 232.977112 243.168274 
L 239.342888 114.861962 
L 245.708663 167.548129 
L 252.074439 135.316592 
L 258.440214 166.308454 
L 264.805989 127.258707 
L 271.171765 188.622596 
L 277.53754 181.184548 
L 283.903316 176.845688 
L 290.269091 148.333174 
L 296.634866 202.878852 
L 303.000642 116.101637 
L 309.366417 185.523409 
L 315.732193 170.647315 
L 322.097968 169.407641 
L 328.463743 165.688617 
L 334.829519 96.266845 
L 341.195294 146.473662 
L 347.56107 155.771221 
L 353.926845 245.027786 
L 360.29262 185.523409 
L 366.658396 205.358201 
L 373.024171 165.06878 
L 379.389947 179.325037 
L 385.755722 171.267152 
" clip-path="url(#p03a6e4967e)" style="fill: none; stroke: #2ca02c; stroke-width: 1.5; stroke-linecap: square"/>
   </g>
   <g id="line2d_18"/>
   <g id="line2d_19"/>
   <g id="line2d_20"/>
   <g id="line2d_21">
    <path d="M 73.832727 150.026642 
L 99.295829 152.955252 
L 99.295829 152.955252 
L 124.75893 156.073255 
L 124.75893 156.073255 
L 150.222032 159.433436 
L 150.222032 159.433436 
L 162.953583 161.274461 
L 162.953583 161.274461 
L 175.685134 163.352029 
L 175.685134 163.352029 
L 188.416684 165.379281 
L 188.416684 165.379281 
L 201.148235 167.03211 
L 201.148235 167.03211 
L 213.879786 168.363988 
L 213.879786 168.363988 
L 226.611337 169.50458 
L 226.611337 169.50458 
L 239.342888 170.455179 
L 239.342888 170.455179 
L 252.074439 171.097387 
L 252.074439 171.097387 
L 264.805989 171.50696 
L 264.805989 171.50696 
L 277.53754 171.679132 
L 277.53754 171.679132 
L 283.903316 171.626844 
L 283.903316 171.626844 
L 322.097968 172.347888 
L 322.097968 172.347888 
L 347.56107 172.802188 
L 347.56107 172.802188 
L 366.658396 173.370026 
L 366.658396 173.370026 
L 385.755722 174.202122 
L 385.755722 174.202122 
" clip-path="url(#p03a6e4967e)" style="fill: none; stroke: #d62728; stroke-width: 2.25; stroke-linecap: square"/>
   </g>
   <g id="line2d_22">
    <path d="M 73.832727 195.906107 
L 86.564278 193.364629 
L 86.564278 193.364629 
L 105.661604 189.806387 
L 105.661604 189.806387 
L 124.75893 186.462862 
L 124.75893 186.462862 
L 143.856257 183.315393 
L 143.856257 183.315393 
L 156.587807 181.365394 
L 156.587807 181.365394 
L 162.953583 180.476423 
L 162.953583 180.476423 
L 169.319358 179.708772 
L 169.319358 179.708772 
L 175.685134 179.186763 
L 175.685134 179.186763 
L 188.416684 179.348339 
L 188.416684 179.348339 
L 213.879786 179.848005 
L 213.879786 179.848005 
L 239.342888 179.852919 
L 239.342888 179.852919 
L 252.074439 179.721625 
L 252.074439 179.721625 
L 258.440214 179.515411 
L 258.440214 179.515411 
L 264.805989 179.182236 
L 264.805989 179.182236 
L 277.53754 178.161981 
L 277.53754 178.161981 
L 283.903316 177.517625 
L 283.903316 177.517625 
L 290.269091 176.693108 
L 290.269091 176.693108 
L 303.000642 175.39855 
L 303.000642 175.39855 
L 366.658396 169.289931 
L 366.658396 169.289931 
L 385.755722 167.492246 
L 385.755722 167.492246 
" clip-path="url(#p03a6e4967e)" style="fill: none; stroke: #9467bd; stroke-width: 2.25; stroke-linecap: square"/>
   </g>
   <g id="line2d_23">
    <path d="M 77.015615 163.404351 
L 121.576043 162.26862 
L 121.576043 162.26862 
L 178.868021 160.996484 
L 178.868021 160.996484 
L 191.599572 160.917413 
L 191.599572 160.917413 
L 267.988877 160.855997 
L 267.988877 160.855997 
L 398.487273 160.853516 
L 398.487273 160.853516 
" clip-path="url(#p03a6e4967e)" style="fill: none; stroke: #8c564b; stroke-width: 2.25; stroke-linecap: square"/>
   </g>
   <g id="patch_3">
    <path d="M 57.6 307.584 
L 57.6 41.472 
" style="fill: none; stroke: #000000; stroke-width: 0.8; stroke-linejoin: miter; stroke-linecap: square"/>
   </g>
   <g id="patch_4">
    <path d="M 414.72 307.584 
L 414.72 41.472 
" style="fill: none; stroke: #000000; stroke-width: 0.8; stroke-linejoin: miter; stroke-linecap: square"/>
   </g>
   <g id="patch_5">
    <path d="M 57.6 307.584 
L 414.72 307.584 
" style="fill: none; stroke: #000000; stroke-width: 0.8; stroke-linejoin: miter; stroke-linecap: square"/>
   </g>
   <g id="patch_6">
    <path d="M 57.6 41.472 
L 414.72 41.472 
" style="fill: none; stroke: #000000; stroke-width: 0.8; stroke-linejoin: miter; stroke-linecap: square"/>
   </g>
   <g id="text_17">
    <!-- A Comparison of DQN, NFSP and DMC Reward During Training  -->
    <g transform="translate(48.820312 22.034625) scale(0.12 -0.12)">
     <defs>
      <path id="DejaVuSans-41" d="M 2188 4044 
L 1331 1722 
L 3047 1722 
L 2188 4044 
z
M 1831 4666 
L 2547 4666 
L 4325 0 
L 3669 0 
L 3244 1197 
L 1141 1197 
L 716 0 
L 50 0 
L 1831 4666 
z
" transform="scale(0.015625)"/>
      <path id="DejaVuSans-20" transform="scale(0.015625)"/>
      <path id="DejaVuSans-43" d="M 4122 4306 
L 4122 3641 
Q 3803 3938 3442 4084 
Q 3081 4231 2675 4231 
Q 1875 4231 1450 3742 
Q 1025 3253 1025 2328 
Q 1025 1406 1450 917 
Q 1875 428 2675 428 
Q 3081 428 3442 575 
Q 3803 722 4122 1019 
L 4122 359 
Q 3791 134 3420 21 
Q 3050 -91 2638 -91 
Q 1578 -91 968 557 
Q 359 1206 359 2328 
Q 359 3453 968 4101 
Q 1578 4750 2638 4750 
Q 3056 4750 3426 4639 
Q 3797 4528 4122 4306 
z
" transform="scale(0.015625)"/>
      <path id="DejaVuSans-6d" d="M 3328 2828 
Q 3544 3216 3844 3400 
Q 4144 3584 4550 3584 
Q 5097 3584 5394 3201 
Q 5691 2819 5691 2113 
L 5691 0 
L 5113 0 
L 5113 2094 
Q 5113 2597 4934 2840 
Q 4756 3084 4391 3084 
Q 3944 3084 3684 2787 
Q 3425 2491 3425 1978 
L 3425 0 
L 2847 0 
L 2847 2094 
Q 2847 2600 2669 2842 
Q 2491 3084 2119 3084 
Q 1678 3084 1418 2786 
Q 1159 2488 1159 1978 
L 1159 0 
L 581 0 
L 581 3500 
L 1159 3500 
L 1159 2956 
Q 1356 3278 1631 3431 
Q 1906 3584 2284 3584 
Q 2666 3584 2933 3390 
Q 3200 3197 3328 2828 
z
" transform="scale(0.015625)"/>
      <path id="DejaVuSans-6e" d="M 3513 2113 
L 3513 0 
L 2938 0 
L 2938 2094 
Q 2938 2591 2744 2837 
Q 2550 3084 2163 3084 
Q 1697 3084 1428 2787 
Q 1159 2491 1159 1978 
L 1159 0 
L 581 0 
L 581 3500 
L 1159 3500 
L 1159 2956 
Q 1366 3272 1645 3428 
Q 1925 3584 2291 3584 
Q 2894 3584 3203 3211 
Q 3513 2838 3513 2113 
z
" transform="scale(0.015625)"/>
      <path id="DejaVuSans-66" d="M 2375 4863 
L 2375 4384 
L 1825 4384 
Q 1516 4384 1395 4259 
Q 1275 4134 1275 3809 
L 1275 3500 
L 2222 3500 
L 2222 3053 
L 1275 3053 
L 1275 0 
L 697 0 
L 697 3053 
L 147 3053 
L 147 3500 
L 697 3500 
L 697 3744 
Q 697 4328 969 4595 
Q 1241 4863 1831 4863 
L 2375 4863 
z
" transform="scale(0.015625)"/>
      <path id="DejaVuSans-44" d="M 1259 4147 
L 1259 519 
L 2022 519 
Q 2988 519 3436 956 
Q 3884 1394 3884 2338 
Q 3884 3275 3436 3711 
Q 2988 4147 2022 4147 
L 1259 4147 
z
M 628 4666 
L 1925 4666 
Q 3281 4666 3915 4102 
Q 4550 3538 4550 2338 
Q 4550 1131 3912 565 
Q 3275 0 1925 0 
L 628 0 
L 628 4666 
z
" transform="scale(0.015625)"/>
      <path id="DejaVuSans-51" d="M 2522 4238 
Q 1834 4238 1429 3725 
Q 1025 3213 1025 2328 
Q 1025 1447 1429 934 
Q 1834 422 2522 422 
Q 3209 422 3611 934 
Q 4013 1447 4013 2328 
Q 4013 3213 3611 3725 
Q 3209 4238 2522 4238 
z
M 3406 84 
L 4238 -825 
L 3475 -825 
L 2784 -78 
Q 2681 -84 2626 -87 
Q 2572 -91 2522 -91 
Q 1538 -91 948 567 
Q 359 1225 359 2328 
Q 359 3434 948 4092 
Q 1538 4750 2522 4750 
Q 3503 4750 4090 4092 
Q 4678 3434 4678 2328 
Q 4678 1516 4351 937 
Q 4025 359 3406 84 
z
" transform="scale(0.015625)"/>
      <path id="DejaVuSans-4e" d="M 628 4666 
L 1478 4666 
L 3547 763 
L 3547 4666 
L 4159 4666 
L 4159 0 
L 3309 0 
L 1241 3903 
L 1241 0 
L 628 0 
L 628 4666 
z
" transform="scale(0.015625)"/>
      <path id="DejaVuSans-2c" d="M 750 794 
L 1409 794 
L 1409 256 
L 897 -744 
L 494 -744 
L 750 256 
L 750 794 
z
" transform="scale(0.015625)"/>
      <path id="DejaVuSans-46" d="M 628 4666 
L 3309 4666 
L 3309 4134 
L 1259 4134 
L 1259 2759 
L 3109 2759 
L 3109 2228 
L 1259 2228 
L 1259 0 
L 628 0 
L 628 4666 
z
" transform="scale(0.015625)"/>
      <path id="DejaVuSans-53" d="M 3425 4513 
L 3425 3897 
Q 3066 4069 2747 4153 
Q 2428 4238 2131 4238 
Q 1616 4238 1336 4038 
Q 1056 3838 1056 3469 
Q 1056 3159 1242 3001 
Q 1428 2844 1947 2747 
L 2328 2669 
Q 3034 2534 3370 2195 
Q 3706 1856 3706 1288 
Q 3706 609 3251 259 
Q 2797 -91 1919 -91 
Q 1588 -91 1214 -16 
Q 841 59 441 206 
L 441 856 
Q 825 641 1194 531 
Q 1563 422 1919 422 
Q 2459 422 2753 634 
Q 3047 847 3047 1241 
Q 3047 1584 2836 1778 
Q 2625 1972 2144 2069 
L 1759 2144 
Q 1053 2284 737 2584 
Q 422 2884 422 3419 
Q 422 4038 858 4394 
Q 1294 4750 2059 4750 
Q 2388 4750 2728 4690 
Q 3069 4631 3425 4513 
z
" transform="scale(0.015625)"/>
      <path id="DejaVuSans-50" d="M 1259 4147 
L 1259 2394 
L 2053 2394 
Q 2494 2394 2734 2622 
Q 2975 2850 2975 3272 
Q 2975 3691 2734 3919 
Q 2494 4147 2053 4147 
L 1259 4147 
z
M 628 4666 
L 2053 4666 
Q 2838 4666 3239 4311 
Q 3641 3956 3641 3272 
Q 3641 2581 3239 2228 
Q 2838 1875 2053 1875 
L 1259 1875 
L 1259 0 
L 628 0 
L 628 4666 
z
" transform="scale(0.015625)"/>
      <path id="DejaVuSans-4d" d="M 628 4666 
L 1569 4666 
L 2759 1491 
L 3956 4666 
L 4897 4666 
L 4897 0 
L 4281 0 
L 4281 4097 
L 3078 897 
L 2444 897 
L 1241 4097 
L 1241 0 
L 628 0 
L 628 4666 
z
" transform="scale(0.015625)"/>
      <path id="DejaVuSans-75" d="M 544 1381 
L 544 3500 
L 1119 3500 
L 1119 1403 
Q 1119 906 1312 657 
Q 1506 409 1894 409 
Q 2359 409 2629 706 
Q 2900 1003 2900 1516 
L 2900 3500 
L 3475 3500 
L 3475 0 
L 2900 0 
L 2900 538 
Q 2691 219 2414 64 
Q 2138 -91 1772 -91 
Q 1169 -91 856 284 
Q 544 659 544 1381 
z
M 1991 3584 
L 1991 3584 
z
" transform="scale(0.015625)"/>
      <path id="DejaVuSans-67" d="M 2906 1791 
Q 2906 2416 2648 2759 
Q 2391 3103 1925 3103 
Q 1463 3103 1205 2759 
Q 947 2416 947 1791 
Q 947 1169 1205 825 
Q 1463 481 1925 481 
Q 2391 481 2648 825 
Q 2906 1169 2906 1791 
z
M 3481 434 
Q 3481 -459 3084 -895 
Q 2688 -1331 1869 -1331 
Q 1566 -1331 1297 -1286 
Q 1028 -1241 775 -1147 
L 775 -588 
Q 1028 -725 1275 -790 
Q 1522 -856 1778 -856 
Q 2344 -856 2625 -561 
Q 2906 -266 2906 331 
L 2906 616 
Q 2728 306 2450 153 
Q 2172 0 1784 0 
Q 1141 0 747 490 
Q 353 981 353 1791 
Q 353 2603 747 3093 
Q 1141 3584 1784 3584 
Q 2172 3584 2450 3431 
Q 2728 3278 2906 2969 
L 2906 3500 
L 3481 3500 
L 3481 434 
z
" transform="scale(0.015625)"/>
      <path id="DejaVuSans-54" d="M -19 4666 
L 3928 4666 
L 3928 4134 
L 2272 4134 
L 2272 0 
L 1638 0 
L 1638 4134 
L -19 4134 
L -19 4666 
z
" transform="scale(0.015625)"/>
     </defs>
     <use xlink:href="#DejaVuSans-41"/>
     <use xlink:href="#DejaVuSans-20" transform="translate(68.408203 0)"/>
     <use xlink:href="#DejaVuSans-43" transform="translate(100.195312 0)"/>
     <use xlink:href="#DejaVuSans-6f" transform="translate(170.019531 0)"/>
     <use xlink:href="#DejaVuSans-6d" transform="translate(231.201172 0)"/>
     <use xlink:href="#DejaVuSans-70" transform="translate(328.613281 0)"/>
     <use xlink:href="#DejaVuSans-61" transform="translate(392.089844 0)"/>
     <use xlink:href="#DejaVuSans-72" transform="translate(453.369141 0)"/>
     <use xlink:href="#DejaVuSans-69" transform="translate(494.482422 0)"/>
     <use xlink:href="#DejaVuSans-73" transform="translate(522.265625 0)"/>
     <use xlink:href="#DejaVuSans-6f" transform="translate(574.365234 0)"/>
     <use xlink:href="#DejaVuSans-6e" transform="translate(635.546875 0)"/>
     <use xlink:href="#DejaVuSans-20" transform="translate(698.925781 0)"/>
     <use xlink:href="#DejaVuSans-6f" transform="translate(730.712891 0)"/>
     <use xlink:href="#DejaVuSans-66" transform="translate(791.894531 0)"/>
     <use xlink:href="#DejaVuSans-20" transform="translate(827.099609 0)"/>
     <use xlink:href="#DejaVuSans-44" transform="translate(858.886719 0)"/>
     <use xlink:href="#DejaVuSans-51" transform="translate(935.888672 0)"/>
     <use xlink:href="#DejaVuSans-4e" transform="translate(1014.599609 0)"/>
     <use xlink:href="#DejaVuSans-2c" transform="translate(1089.404297 0)"/>
     <use xlink:href="#DejaVuSans-20" transform="translate(1121.191406 0)"/>
     <use xlink:href="#DejaVuSans-4e" transform="translate(1152.978516 0)"/>
     <use xlink:href="#DejaVuSans-46" transform="translate(1227.783203 0)"/>
     <use xlink:href="#DejaVuSans-53" transform="translate(1283.552734 0)"/>
     <use xlink:href="#DejaVuSans-50" transform="translate(1347.029297 0)"/>
     <use xlink:href="#DejaVuSans-20" transform="translate(1407.332031 0)"/>
     <use xlink:href="#DejaVuSans-61" transform="translate(1439.119141 0)"/>
     <use xlink:href="#DejaVuSans-6e" transform="translate(1500.398438 0)"/>
     <use xlink:href="#DejaVuSans-64" transform="translate(1563.777344 0)"/>
     <use xlink:href="#DejaVuSans-20" transform="translate(1627.253906 0)"/>
     <use xlink:href="#DejaVuSans-44" transform="translate(1659.041016 0)"/>
     <use xlink:href="#DejaVuSans-4d" transform="translate(1736.042969 0)"/>
     <use xlink:href="#DejaVuSans-43" transform="translate(1822.322266 0)"/>
     <use xlink:href="#DejaVuSans-20" transform="translate(1892.146484 0)"/>
     <use xlink:href="#DejaVuSans-52" transform="translate(1923.933594 0)"/>
     <use xlink:href="#DejaVuSans-65" transform="translate(1988.916016 0)"/>
     <use xlink:href="#DejaVuSans-77" transform="translate(2050.439453 0)"/>
     <use xlink:href="#DejaVuSans-61" transform="translate(2132.226562 0)"/>
     <use xlink:href="#DejaVuSans-72" transform="translate(2193.505859 0)"/>
     <use xlink:href="#DejaVuSans-64" transform="translate(2232.869141 0)"/>
     <use xlink:href="#DejaVuSans-20" transform="translate(2296.345703 0)"/>
     <use xlink:href="#DejaVuSans-44" transform="translate(2328.132812 0)"/>
     <use xlink:href="#DejaVuSans-75" transform="translate(2405.134766 0)"/>
     <use xlink:href="#DejaVuSans-72" transform="translate(2468.513672 0)"/>
     <use xlink:href="#DejaVuSans-69" transform="translate(2509.626953 0)"/>
     <use xlink:href="#DejaVuSans-6e" transform="translate(2537.410156 0)"/>
     <use xlink:href="#DejaVuSans-67" transform="translate(2600.789062 0)"/>
     <use xlink:href="#DejaVuSans-20" transform="translate(2664.265625 0)"/>
     <use xlink:href="#DejaVuSans-54" transform="translate(2696.052734 0)"/>
     <use xlink:href="#DejaVuSans-72" transform="translate(2742.386719 0)"/>
     <use xlink:href="#DejaVuSans-61" transform="translate(2783.5 0)"/>
     <use xlink:href="#DejaVuSans-69" transform="translate(2844.779297 0)"/>
     <use xlink:href="#DejaVuSans-6e" transform="translate(2872.5625 0)"/>
     <use xlink:href="#DejaVuSans-69" transform="translate(2935.941406 0)"/>
     <use xlink:href="#DejaVuSans-6e" transform="translate(2963.724609 0)"/>
     <use xlink:href="#DejaVuSans-67" transform="translate(3027.103516 0)"/>
     <use xlink:href="#DejaVuSans-20" transform="translate(3090.580078 0)"/>
    </g>
    <!--  over 10,000 Episodes -->
    <g transform="translate(169.373437 35.472) scale(0.12 -0.12)">
     <defs>
      <path id="DejaVuSans-76" d="M 191 3500 
L 800 3500 
L 1894 563 
L 2988 3500 
L 3597 3500 
L 2284 0 
L 1503 0 
L 191 3500 
z
" transform="scale(0.015625)"/>
     </defs>
     <use xlink:href="#DejaVuSans-20"/>
     <use xlink:href="#DejaVuSans-6f" transform="translate(31.787109 0)"/>
     <use xlink:href="#DejaVuSans-76" transform="translate(92.96875 0)"/>
     <use xlink:href="#DejaVuSans-65" transform="translate(152.148438 0)"/>
     <use xlink:href="#DejaVuSans-72" transform="translate(213.671875 0)"/>
     <use xlink:href="#DejaVuSans-20" transform="translate(254.785156 0)"/>
     <use xlink:href="#DejaVuSans-31" transform="translate(286.572266 0)"/>
     <use xlink:href="#DejaVuSans-30" transform="translate(350.195312 0)"/>
     <use xlink:href="#DejaVuSans-2c" transform="translate(413.818359 0)"/>
     <use xlink:href="#DejaVuSans-30" transform="translate(445.605469 0)"/>
     <use xlink:href="#DejaVuSans-30" transform="translate(509.228516 0)"/>
     <use xlink:href="#DejaVuSans-30" transform="translate(572.851562 0)"/>
     <use xlink:href="#DejaVuSans-20" transform="translate(636.474609 0)"/>
     <use xlink:href="#DejaVuSans-45" transform="translate(668.261719 0)"/>
     <use xlink:href="#DejaVuSans-70" transform="translate(731.445312 0)"/>
     <use xlink:href="#DejaVuSans-69" transform="translate(794.921875 0)"/>
     <use xlink:href="#DejaVuSans-73" transform="translate(822.705078 0)"/>
     <use xlink:href="#DejaVuSans-6f" transform="translate(874.804688 0)"/>
     <use xlink:href="#DejaVuSans-64" transform="translate(935.986328 0)"/>
     <use xlink:href="#DejaVuSans-65" transform="translate(999.462891 0)"/>
     <use xlink:href="#DejaVuSans-73" transform="translate(1060.986328 0)"/>
    </g>
   </g>
   <g id="legend_1">
    <g id="patch_7">
     <path d="M 266.7825 302.584 
L 407.72 302.584 
Q 409.72 302.584 409.72 300.584 
L 409.72 213.51525 
Q 409.72 211.51525 407.72 211.51525 
L 266.7825 211.51525 
Q 264.7825 211.51525 264.7825 213.51525 
L 264.7825 300.584 
Q 264.7825 302.584 266.7825 302.584 
z
" style="fill: #ffffff; opacity: 0.8; stroke: #cccccc; stroke-linejoin: miter"/>
    </g>
    <g id="line2d_24">
     <path d="M 268.7825 219.613687 
L 278.7825 219.613687 
L 288.7825 219.613687 
" style="fill: none; stroke: #1f77b4; stroke-width: 1.5; stroke-linecap: square"/>
    </g>
    <g id="text_18">
     <!-- DMC -->
     <g transform="translate(296.7825 223.113687) scale(0.1 -0.1)">
      <use xlink:href="#DejaVuSans-44"/>
      <use xlink:href="#DejaVuSans-4d" transform="translate(77.001953 0)"/>
      <use xlink:href="#DejaVuSans-43" transform="translate(163.28125 0)"/>
     </g>
    </g>
    <g id="line2d_25">
     <path d="M 268.7825 234.291812 
L 278.7825 234.291812 
L 288.7825 234.291812 
" style="fill: none; stroke: #ff7f0e; stroke-width: 1.5; stroke-linecap: square"/>
    </g>
    <g id="text_19">
     <!-- NFSP -->
     <g transform="translate(296.7825 237.791812) scale(0.1 -0.1)">
      <use xlink:href="#DejaVuSans-4e"/>
      <use xlink:href="#DejaVuSans-46" transform="translate(74.804688 0)"/>
      <use xlink:href="#DejaVuSans-53" transform="translate(130.574219 0)"/>
      <use xlink:href="#DejaVuSans-50" transform="translate(194.050781 0)"/>
     </g>
    </g>
    <g id="line2d_26">
     <path d="M 268.7825 248.969937 
L 278.7825 248.969937 
L 288.7825 248.969937 
" style="fill: none; stroke: #2ca02c; stroke-width: 1.5; stroke-linecap: square"/>
    </g>
    <g id="text_20">
     <!-- DQN -->
     <g transform="translate(296.7825 252.469937) scale(0.1 -0.1)">
      <use xlink:href="#DejaVuSans-44"/>
      <use xlink:href="#DejaVuSans-51" transform="translate(77.001953 0)"/>
      <use xlink:href="#DejaVuSans-4e" transform="translate(155.712891 0)"/>
     </g>
    </g>
    <g id="line2d_27">
     <path d="M 268.7825 263.648062 
L 278.7825 263.648062 
L 288.7825 263.648062 
" style="fill: none; stroke: #d62728; stroke-width: 2.25; stroke-linecap: square"/>
    </g>
    <g id="text_21">
     <!-- DQN Trend (LOWESS) -->
     <g transform="translate(296.7825 267.148062) scale(0.1 -0.1)">
      <defs>
       <path id="DejaVuSans-28" d="M 1984 4856 
Q 1566 4138 1362 3434 
Q 1159 2731 1159 2009 
Q 1159 1288 1364 580 
Q 1569 -128 1984 -844 
L 1484 -844 
Q 1016 -109 783 600 
Q 550 1309 550 2009 
Q 550 2706 781 3412 
Q 1013 4119 1484 4856 
L 1984 4856 
z
" transform="scale(0.015625)"/>
       <path id="DejaVuSans-4c" d="M 628 4666 
L 1259 4666 
L 1259 531 
L 3531 531 
L 3531 0 
L 628 0 
L 628 4666 
z
" transform="scale(0.015625)"/>
       <path id="DejaVuSans-4f" d="M 2522 4238 
Q 1834 4238 1429 3725 
Q 1025 3213 1025 2328 
Q 1025 1447 1429 934 
Q 1834 422 2522 422 
Q 3209 422 3611 934 
Q 4013 1447 4013 2328 
Q 4013 3213 3611 3725 
Q 3209 4238 2522 4238 
z
M 2522 4750 
Q 3503 4750 4090 4092 
Q 4678 3434 4678 2328 
Q 4678 1225 4090 567 
Q 3503 -91 2522 -91 
Q 1538 -91 948 565 
Q 359 1222 359 2328 
Q 359 3434 948 4092 
Q 1538 4750 2522 4750 
z
" transform="scale(0.015625)"/>
       <path id="DejaVuSans-57" d="M 213 4666 
L 850 4666 
L 1831 722 
L 2809 4666 
L 3519 4666 
L 4500 722 
L 5478 4666 
L 6119 4666 
L 4947 0 
L 4153 0 
L 3169 4050 
L 2175 0 
L 1381 0 
L 213 4666 
z
" transform="scale(0.015625)"/>
       <path id="DejaVuSans-29" d="M 513 4856 
L 1013 4856 
Q 1481 4119 1714 3412 
Q 1947 2706 1947 2009 
Q 1947 1309 1714 600 
Q 1481 -109 1013 -844 
L 513 -844 
Q 928 -128 1133 580 
Q 1338 1288 1338 2009 
Q 1338 2731 1133 3434 
Q 928 4138 513 4856 
z
" transform="scale(0.015625)"/>
      </defs>
      <use xlink:href="#DejaVuSans-44"/>
      <use xlink:href="#DejaVuSans-51" transform="translate(77.001953 0)"/>
      <use xlink:href="#DejaVuSans-4e" transform="translate(155.712891 0)"/>
      <use xlink:href="#DejaVuSans-20" transform="translate(230.517578 0)"/>
      <use xlink:href="#DejaVuSans-54" transform="translate(262.304688 0)"/>
      <use xlink:href="#DejaVuSans-72" transform="translate(308.638672 0)"/>
      <use xlink:href="#DejaVuSans-65" transform="translate(347.501953 0)"/>
      <use xlink:href="#DejaVuSans-6e" transform="translate(409.025391 0)"/>
      <use xlink:href="#DejaVuSans-64" transform="translate(472.404297 0)"/>
      <use xlink:href="#DejaVuSans-20" transform="translate(535.880859 0)"/>
      <use xlink:href="#DejaVuSans-28" transform="translate(567.667969 0)"/>
      <use xlink:href="#DejaVuSans-4c" transform="translate(606.681641 0)"/>
      <use xlink:href="#DejaVuSans-4f" transform="translate(658.769531 0)"/>
      <use xlink:href="#DejaVuSans-57" transform="translate(737.480469 0)"/>
      <use xlink:href="#DejaVuSans-45" transform="translate(836.357422 0)"/>
      <use xlink:href="#DejaVuSans-53" transform="translate(899.541016 0)"/>
      <use xlink:href="#DejaVuSans-53" transform="translate(963.017578 0)"/>
      <use xlink:href="#DejaVuSans-29" transform="translate(1026.494141 0)"/>
     </g>
    </g>
    <g id="line2d_28">
     <path d="M 268.7825 278.326188 
L 278.7825 278.326188 
L 288.7825 278.326188 
" style="fill: none; stroke: #9467bd; stroke-width: 2.25; stroke-linecap: square"/>
    </g>
    <g id="text_22">
     <!-- NFSP Trend (LOWESS) -->
     <g transform="translate(296.7825 281.826188) scale(0.1 -0.1)">
      <use xlink:href="#DejaVuSans-4e"/>
      <use xlink:href="#DejaVuSans-46" transform="translate(74.804688 0)"/>
      <use xlink:href="#DejaVuSans-53" transform="translate(130.574219 0)"/>
      <use xlink:href="#DejaVuSans-50" transform="translate(194.050781 0)"/>
      <use xlink:href="#DejaVuSans-20" transform="translate(254.353516 0)"/>
      <use xlink:href="#DejaVuSans-54" transform="translate(286.140625 0)"/>
      <use xlink:href="#DejaVuSans-72" transform="translate(332.474609 0)"/>
      <use xlink:href="#DejaVuSans-65" transform="translate(371.337891 0)"/>
      <use xlink:href="#DejaVuSans-6e" transform="translate(432.861328 0)"/>
      <use xlink:href="#DejaVuSans-64" transform="translate(496.240234 0)"/>
      <use xlink:href="#DejaVuSans-20" transform="translate(559.716797 0)"/>
      <use xlink:href="#DejaVuSans-28" transform="translate(591.503906 0)"/>
      <use xlink:href="#DejaVuSans-4c" transform="translate(630.517578 0)"/>
      <use xlink:href="#DejaVuSans-4f" transform="translate(682.605469 0)"/>
      <use xlink:href="#DejaVuSans-57" transform="translate(761.316406 0)"/>
      <use xlink:href="#DejaVuSans-45" transform="translate(860.193359 0)"/>
      <use xlink:href="#DejaVuSans-53" transform="translate(923.376953 0)"/>
      <use xlink:href="#DejaVuSans-53" transform="translate(986.853516 0)"/>
      <use xlink:href="#DejaVuSans-29" transform="translate(1050.330078 0)"/>
     </g>
    </g>
    <g id="line2d_29">
     <path d="M 268.7825 293.004312 
L 278.7825 293.004312 
L 288.7825 293.004312 
" style="fill: none; stroke: #8c564b; stroke-width: 2.25; stroke-linecap: square"/>
    </g>
    <g id="text_23">
     <!-- DMC Trend (LOWESS) -->
     <g transform="translate(296.7825 296.504312) scale(0.1 -0.1)">
      <use xlink:href="#DejaVuSans-44"/>
      <use xlink:href="#DejaVuSans-4d" transform="translate(77.001953 0)"/>
      <use xlink:href="#DejaVuSans-43" transform="translate(163.28125 0)"/>
      <use xlink:href="#DejaVuSans-20" transform="translate(233.105469 0)"/>
      <use xlink:href="#DejaVuSans-54" transform="translate(264.892578 0)"/>
      <use xlink:href="#DejaVuSans-72" transform="translate(311.226562 0)"/>
      <use xlink:href="#DejaVuSans-65" transform="translate(350.089844 0)"/>
      <use xlink:href="#DejaVuSans-6e" transform="translate(411.613281 0)"/>
      <use xlink:href="#DejaVuSans-64" transform="translate(474.992188 0)"/>
      <use xlink:href="#DejaVuSans-20" transform="translate(538.46875 0)"/>
      <use xlink:href="#DejaVuSans-28" transform="translate(570.255859 0)"/>
      <use xlink:href="#DejaVuSans-4c" transform="translate(609.269531 0)"/>
      <use xlink:href="#DejaVuSans-4f" transform="translate(661.357422 0)"/>
      <use xlink:href="#DejaVuSans-57" transform="translate(740.068359 0)"/>
      <use xlink:href="#DejaVuSans-45" transform="translate(838.945312 0)"/>
      <use xlink:href="#DejaVuSans-53" transform="translate(902.128906 0)"/>
      <use xlink:href="#DejaVuSans-53" transform="translate(965.605469 0)"/>
      <use xlink:href="#DejaVuSans-29" transform="translate(1029.082031 0)"/>
     </g>
    </g>
   </g>
  </g>
 </g>
 <defs>
  <clipPath id="p03a6e4967e">
   <rect x="57.6" y="41.472" width="357.12" height="266.112"/>
  </clipPath>
 </defs>
</svg>
